# Made in Blockbench 5.0.7
mtllib arcane_brazier_empty.mtl

o mesh
v 1 0.25 1
v 1 0.25 0
v 1 0 1
v 1 0 0
v 0 0.25 1
v 0 0.25 0
v 0 0 1
v 0 0 0
vt 1 0.875
vt 0 0.875
vt 0 0.625
vt 1 0.625
vt 1 0.625
vt 1 0.875
vt 0 0.875
vt 0 0.625
vt 0 0
vt 1 0
vt 1 1
vt 0 1
vt 1 0
vt 1 1
vt 0 1
vt 0 0
vt 1 0.625
vt 1 0.875
vt 0 0.875
vt 0 0.625
vt 1 0.875
vt 0 0.875
vt 0 0.625
vt 1 0.625
vn 1 0 0
vn -1 0 0
vn 0 1 0
vn 0 -1 0
vn 0 0 1
vn 0 0 -1
usemtl m_124d271d-9a57-d078-a095-90c035b78e9d
f 2/1/1 1/2/1 3/3/1 4/4/1
f 7/5/2 5/6/2 6/7/2 8/8/2
f 5/9/3 1/10/3 2/11/3 6/12/3
f 4/13/4 3/14/4 7/15/4 8/16/4
f 3/17/5 1/18/5 5/19/5 7/20/5
f 6/21/6 2/22/6 4/23/6 8/24/6
o mesh
v 0.75 0.75 0.75
v 0.75 0.75 0.25
v 0.75 0.25 0.75
v 0.75 0.25 0.25
v 0.25 0.75 0.75
v 0.25 0.75 0.25
v 0.25 0.25 0.75
v 0.25 0.25 0.25
vt 0.5 1
vt 0 1
vt 0 0.5
vt 0.5 0.5
vt 0.5 0.5
vt 0.5 1
vt 0 1
vt 0 0.5
vt 0 0.5
vt 0.5 0.5
vt 0.5 1
vt 0 1
vt 0.5 0.5
vt 0.5 1
vt 0 1
vt 0 0.5
vt 0.5 0.5
vt 0.5 1
vt 0 1
vt 0 0.5
vt 0.5 1
vt 0 1
vt 0 0.5
vt 0.5 0.5
vn 1 0 0
vn -1 0 0
vn 0 1 0
vn 0 -1 0
vn 0 0 1
vn 0 0 -1
usemtl none
f 10/25/7 9/26/7 11/27/7 12/28/7
f 15/29/8 13/30/8 14/31/8 16/32/8
f 13/33/9 9/34/9 10/35/9 14/36/9
f 12/37/10 11/38/10 15/39/10 16/40/10
f 11/41/11 9/42/11 13/43/11 15/44/11
f 14/45/12 10/46/12 12/47/12 16/48/12
o mesh
v 0.25000000000000006 0.75 0.25
v 5.551115123125783e-17 0.75 0.24999999999999994
v 0.25000000000000006 0.25 0.25
v 5.551115123125783e-17 0.25 0.24999999999999994
v 0.24999999999999994 0.75 0.75
v -5.551115123125783e-17 0.75 0.75
v 0.24999999999999994 0.25 0.75
v -5.551115123125783e-17 0.25 0.75
vt 0.6875 1
vt 0.4375 1
vt 0.4375 0.5
vt 0.6875 0.5
vt 0.6875 0.5
vt 0.6875 1
vt 0.4375 1
vt 0.4375 0.5
vt 0 0
vt 1 0
vt 1 1
vt 0 1
vt 1 0
vt 1 1
vt 0 1
vt 0 0
vt 1 0.5
vt 1 1
vt 0 1
vt 0 0.5
vt 1 0.5
vt 0.5 0.5
vt 0.5 0
vt 1 0
vn 2.220446049250313e-16 0 -1
vn -2.220446049250313e-16 0 1
vn 0 1 0
vn 0 -1 0
vn 1 0 2.220446049250313e-16
vn -1 0 -2.220446049250313e-16
usemtl m_f8383e48-3a1d-0cbb-c7ed-840e10f1e370
f 18/49/13 17/50/13 19/51/13 20/52/13
f 23/53/14 21/54/14 22/55/14 24/56/14
usemtl none
f 21/57/15 17/58/15 18/59/15 22/60/15
f 20/61/16 19/62/16 23/63/16 24/64/16
f 19/65/17 17/66/17 21/67/17 23/68/17
usemtl m_f8383e48-3a1d-0cbb-c7ed-840e10f1e370
f 22/69/18 18/70/18 20/71/18 24/72/18
o mesh
v 0.75 0.75 1
v 0.75 0.75 0.75
v 0.75 0.25 1
v 0.75 0.25 0.75
v 0.25 0.75 1
v 0.25 0.75 0.75
v 0.25 0.25 1
v 0.25 0.25 0.75
vt 0.6875 1
vt 0.4375 1
vt 0.4375 0.5
vt 0.6875 0.5
vt 0.6875 0.5
vt 0.6875 1
vt 0.4375 1
vt 0.4375 0.5
vt 0 0
vt 1 0
vt 1 1
vt 0 1
vt 1 0
vt 1 1
vt 0 1
vt 0 0
vt 0.5 0
vt 0.5 0.5
vt 0 0.5
vt 0 0
vt 1 1
vt 0 1
vt 0 0.5
vt 1 0.5
vn 1 0 0
vn -1 0 0
vn 0 1 0
vn 0 -1 0
vn 0 0 1
vn 0 0 -1
usemtl m_f8383e48-3a1d-0cbb-c7ed-840e10f1e370
f 26/73/19 25/74/19 27/75/19 28/76/19
f 31/77/20 29/78/20 30/79/20 32/80/20
usemtl none
f 29/81/21 25/82/21 26/83/21 30/84/21
f 28/85/22 27/86/22 31/87/22 32/88/22
usemtl m_f8383e48-3a1d-0cbb-c7ed-840e10f1e370
f 27/89/23 25/90/23 29/91/23 31/92/23
usemtl none
f 30/93/24 26/94/24 28/95/24 32/96/24
o mesh
v 1 0.75 0.25
v 0.75 0.75 0.25
v 1 0.25 0.25
v 0.75 0.25 0.25
v 1 0.75 0.75
v 0.75 0.75 0.75
v 1 0.25 0.75
v 0.75 0.25 0.75
vt 0.6875 1
vt 0.4375 1
vt 0.4375 0.5
vt 0.6875 0.5
vt 0.6875 0.5
vt 0.6875 1
vt 0.4375 1
vt 0.4375 0.5
vt 0 0
vt 1 0
vt 1 1
vt 0 1
vt 1 0
vt 1 1
vt 0 1
vt 0 0
vt 0.5 0.5
vt 0.5 1
vt 0 1
vt 0 0.5
vt 1 1
vt 0 1
vt 0 0.5
vt 1 0.5
vn 2.220446049250313e-16 0 -1
vn -2.220446049250313e-16 0 1
vn 0 1 0
vn 0 -1 0
vn 1 0 2.220446049250313e-16
vn -1 0 -2.220446049250313e-16
usemtl m_f8383e48-3a1d-0cbb-c7ed-840e10f1e370
f 34/97/25 33/98/25 35/99/25 36/100/25
f 39/101/26 37/102/26 38/103/26 40/104/26
usemtl none
f 37/105/27 33/106/27 34/107/27 38/108/27
f 36/109/28 35/110/28 39/111/28 40/112/28
usemtl m_f8383e48-3a1d-0cbb-c7ed-840e10f1e370
f 35/113/29 33/114/29 37/115/29 39/116/29
usemtl none
f 38/117/30 34/118/30 36/119/30 40/120/30
o mesh
v 0.75 0.75 0.25
v 0.75 0.75 0
v 0.75 0.25 0.25
v 0.75 0.25 0
v 0.25 0.75 0.25
v 0.25 0.75 0
v 0.25 0.25 0.25
v 0.25 0.25 0
vt 0.6875 1
vt 0.4375 1
vt 0.4375 0.5
vt 0.6875 0.5
vt 0.6875 0.5
vt 0.6875 1
vt 0.4375 1
vt 0.4375 0.5
vt 0 0
vt 1 0
vt 1 1
vt 0 1
vt 1 0
vt 1 1
vt 0 1
vt 0 0
vt 1 0.5
vt 1 1
vt 0 1
vt 0 0.5
vt 1 1
vt 0.5 1
vt 0.5 0.5
vt 1 0.5
vn 1 0 0
vn -1 0 0
vn 0 1 0
vn 0 -1 0
vn 0 0 1
vn 0 0 -1
usemtl m_f8383e48-3a1d-0cbb-c7ed-840e10f1e370
f 42/121/31 41/122/31 43/123/31 44/124/31
f 47/125/32 45/126/32 46/127/32 48/128/32
usemtl none
f 45/129/33 41/130/33 42/131/33 46/132/33
f 44/133/34 43/134/34 47/135/34 48/136/34
f 43/137/35 41/138/35 45/139/35 47/140/35
usemtl m_f8383e48-3a1d-0cbb-c7ed-840e10f1e370
f 46/141/36 42/142/36 44/143/36 48/144/36
o cylinder_selection
v 0.65072125 1.0625125 1.0625
v 0.9117787500000001 1.0625093749999999 0.9117787500000001
v 1.0625 1.062503125 0.65072125
v 1.0625 1.062496875 0.34927874999999997
v 0.9117787500000001 1.0624906250000001 0.08822124999999997
v 0.65072125 1.0624875 -0.0625
v 0.34927874999999997 1.0624875 -0.0625
v 0.08822124999999997 1.0624906250000001 0.08822124999999997
v -0.0625 1.062496875 0.34927874999999997
v -0.0625 1.062503125 0.65072125
v 0.08822124999999997 1.0625093749999999 0.9117787500000001
v 0.34927874999999997 1.0625125 1.0625
v 0.5 0.75 0.5
v 0.667468125 0.75 1.125
v 0.684215 1.0625 1.1875
v 0.9575318749999999 0.75 0.9575318749999999
v 1.003285 1.0625 1.003285
v 1.125 0.75 0.667468125
v 1.1875 1.0625 0.684215
v 1.125 0.75 0.33253187500000003
v 1.1875 1.0625 0.315785
v 0.9575318749999999 0.75 0.04246812500000002
v 1.003285 1.0625 -0.0032849999999999824
v 0.667468125 0.75 -0.125
v 0.684215 1.0625 -0.1875
v 0.33253187500000003 0.75 -0.125
v 0.315785 1.0625 -0.1875
v 0.04246812500000002 0.75 0.04246812500000002
v -0.0032849999999999824 1.0625 -0.0032849999999999824
v -0.125 0.75 0.33253187500000003
v -0.1875 1.0625 0.315785
v -0.125 0.75 0.667468125
v -0.1875 1.0625 0.684215
v 0.04246812500000002 0.75 0.9575318749999999
v -0.0032849999999999824 1.0625 1.003285
v 0.33253187500000003 0.75 1.125
v 0.315785 1.0625 1.1875
v 0.608076875 0.8125125 0.9375
v 0.816923125 0.812509375 0.8202725
v 0.9375 0.812503125 0.6172275
v 0.9375 0.812496875 0.3827725
v 0.816923125 0.812490625 0.17972749999999998
v 0.608076875 0.8124875 0.0625
v 0.366923125 0.8124875 0.0625
v 0.158076875 0.812490625 0.17972749999999998
v 0.03749999999999998 0.812496875 0.3827725
v 0.03749999999999998 0.812503125 0.6172275
v 0.158076875 0.812509375 0.8202725
v 0.366923125 0.8125125 0.9375
v 0.4875 0.8125 0.5
v -0.0625 0.8125 0.35672187499999997
v -0.0625 0.8125 0.643278125
vt 0.3276075 0.5625
vt 0.068975 0.559368125
vt 0.204158125 0.07842812499999996
vt 0.26674375 0.6813125
vt 0.60168125 0.6813125
vt 0.618425 1
vt 0.25 1
vt 0.651466875 0.09881812499999998
vt 0.87339625 0.23031625
vt 0.516658125 0.5784281250000001
vt 0.32924375 0.6813125
vt 0.66418125 0.6813125
vt 0.680925 1
vt 0.3125 1
vt 0.9526075 0.625
vt 0.693975 0.621868125
vt 0.829158125 0.14092812499999996
vt 0.51674375 0.6813125
vt 0.85168125 0.6813125
vt 0.868425 1
vt 0.5 1
vt 0.6401075 0.9375
vt 0.381475 0.934368125
vt 0.516658125 0.45342812499999996
vt 0.20424375 0.6813125
vt 0.53918125 0.6813125
vt 0.555925 1
vt 0.1875 1
vt 0.8901075 0.6875
vt 0.631475 0.684368125
vt 0.766658125 0.20342812499999996
vt 0.45424375 0.6813125
vt 0.78918125 0.6813125
vt 0.805925 1
vt 0.4375 1
vt 0.3901075 0.5625
vt 0.131475 0.559368125
vt 0.266658125 0.07842812499999996
vt 0.32924375 0.6813125
vt 0.66418125 0.6813125
vt 0.680925 1
vt 0.3125 1
vt 0.8901075 0.9375
vt 0.631475 0.934368125
vt 0.766658125 0.45342812499999996
vt 0.20424375 0.6813125
vt 0.53918125 0.6813125
vt 0.555925 1
vt 0.1875 1
vt 0.5776075 0.5
vt 0.318975 0.496868125
vt 0.454158125 0.01592812499999996
vt 0.26674375 0.6813125
vt 0.60168125 0.6813125
vt 0.618425 1
vt 0.25 1
vt 0.8901075 0.625
vt 0.631475 0.621868125
vt 0.766658125 0.14092812499999996
vt 0.39174375 0.6813125
vt 0.72668125 0.6813125
vt 0.743425 1
vt 0.375 1
vt 0.9526075 0.8125
vt 0.693975 0.809368125
vt 0.829158125 0.32842812499999996
vt 0.57924375 0.6813125
vt 0.91418125 0.6813125
vt 0.930925 1
vt 0.5625 1
vt 0.3901075 0.6875
vt 0.131475 0.684368125
vt 0.266658125 0.20342812499999996
vt 0.39174375 0.6813125
vt 0.72668125 0.6813125
vt 0.743425 1
vt 0.375 1
vt 0.9526075 0.5625
vt 0.693975 0.559368125
vt 0.829158125 0.07842812499999996
vt 0.07924375 0.6813125
vt 0.41418125 0.6813125
vt 0.430925 1
vt 0.0625 1
vt 0.375 1
vt 0.40849375 0.875
vt 0.70993125 0.875
vt 0.743425 1
vt 0.5625 1
vt 0.59599375 0.875
vt 0.89743125 0.875
vt 0.930925 1
vt 0.5625 1
vt 0.59599375 0.875
vt 0.89743125 0.875
vt 0.930925 1
vt 0.375 1
vt 0.40849625 0.8749975
vt 0.709935625 0.8749975
vt 0.743431875 0.999994375
vt 0.5 0.999994375
vt 0.533493125 0.874999375
vt 0.834935625 0.874999375
vt 0.868426875 1
vt 0.5625 1
vt 0.59599375 0.875
vt 0.89743125 0.875
vt 0.930925 1
vt 0.5625 1
vt 0.59599375 0.875
vt 0.89743125 0.875
vt 0.930925 1
vt 0.5625 1
vt 0.59599375 0.875
vt 0.89743125 0.875
vt 0.930925 1
vt 0.5625 1
vt 0.59599375 0.875
vt 0.89743125 0.875
vt 0.930925 1
vt 0.5625 1
vt 0.59599375 0.875
vt 0.89743125 0.875
vt 0.930925 1
vt 0.5625 1
vt 0.59599375 0.875
vt 0.89743125 0.875
vt 0.930925 1
vt 0.5625 1
vt 0.59599375 0.875
vt 0.89743125 0.875
vt 0.930925 1
vt 0.35428875 0.92525625
vt 0.157914375 0.80108375
vt 0.493315 0.507534375
vt 0.157914375 0.80108375
vt 0.05141125 0.598255625
vt 0.493315 0.507534375
vt 0.05141125 0.598255625
vt 0.06331625 0.37111937500000003
vt 0.493315 0.507534375
vt 0.06331625 0.37111937500000003
vt 0.190438125 0.18053687500000004
vt 0.493315 0.507534375
vt 0.190438125 0.18053687500000004
vt 0.398715 0.07757312500000002
vt 0.493315 0.507534375
vt 0.398715 0.07757312500000002
vt 0.632339375 0.08981687500000002
vt 0.493315 0.507534375
vt 0.632339375 0.08981687500000002
vt 0.8287125 0.2139875
vt 0.493315 0.507534375
vt 0.8287125 0.2139875
vt 0.9352175 0.41681375
vt 0.493315 0.507534375
vt 0.9352175 0.41681375
vt 0.923315 0.64395
vt 0.493315 0.507534375
vt 0.923315 0.64395
vt 0.79619375 0.834534375
vt 0.493315 0.507534375
vt 0.79619375 0.834534375
vt 0.587915625 0.9375
vt 0.493315 0.507534375
vt 0.587915625 0.9375
vt 0.35428875 0.92525625
vt 0.493315 0.507534375
vt 0.38379375 0.6579937499999999
vt 0.4264375 0.9375
vt 0.125 0.9375
vt 0.14264375 0.6579937499999999
vt 0.5625 0.5625
vt 0.60514375 0.28299375000000004
vt 0.84629375 0.28299375000000004
vt 0.8639375 0.5625
vt 0.5625 0.8125
vt 0.60514375 0.5329937499999999
vt 0.84629375 0.5329937499999999
vt 0.8639375 0.8125
vt 0.25 0.8125
vt 0.29264375 0.5329937499999999
vt 0.53379375 0.5329937499999999
vt 0.5514375 0.8125
vt 0.375 0.935851875
vt 0.4100175 0.656531875
vt 0.6461675 0.656531875
vt 0.67641875 0.9375
vt 0.625 0.935858125
vt 0.6629175 0.655800625
vt 0.9024175 0.655800625
vt 0.92641875 0.9375
vt 0.125 0.5625
vt 0.16764375 0.28299375000000004
vt 0.40879375 0.28299375000000004
vt 0.4264375 0.5625
vt 0.125 0.5625
vt 0.16764375 0.28299375000000004
vt 0.40879375 0.28299375000000004
vt 0.4264375 0.5625
vt 0.125 0.5625
vt 0.16764375 0.28299375000000004
vt 0.40879375 0.28299375000000004
vt 0.4264375 0.5625
vt 0.125 0.6832693750000001
vt 0.4010575 0.63605625
vt 0.4010575 0.9375
vt 0.1262325 0.922750625
vt 0.125 0.5625
vt 0.16764375 0.28299375000000004
vt 0.40879375 0.28299375000000004
vt 0.4264375 0.5625
vt 0.125 0.5625
vt 0.16764375 0.28299375000000004
vt 0.40879375 0.28299375000000004
vt 0.4264375 0.5625
vn 0 -1 0
vn 0.4902897930179793 -0.19611589325527032 0.8492081460249157
vn 0 -1 0
vn 0.8492080850771194 -0.19611624513752315 0.4902897578298072
vn 0 -1 0
vn 0.9805806756909203 -0.19611613513818407 0
vn 0 -1 0
vn 0.8492081460249157 -0.19611589325527032 -0.4902897930179793
vn 0 -1 0
vn 0.4902897578298072 -0.19611624513752315 -0.8492080850771194
vn 0 -1 0
vn 0 -0.19611613513818407 -0.9805806756909203
vn 0 -1 0
vn -0.4902897930179793 -0.19611589325527032 -0.8492081460249157
vn 0 -1 0
vn -0.8492080850771194 -0.19611624513752315 -0.4902897578298072
vn 0 -1 0
vn -0.9805806756909203 -0.19611613513818407 0
vn 0 -1 0
vn -0.8492081460249157 -0.19611589325527032 0.4902897930179793
vn 0 -1 0
vn -0.4902897578298072 -0.19611624513752315 0.8492080850771194
vn 0 -1 0
vn 0 -0.19611613513818407 0.9805806756909203
vn 0.000027206198027364563 0.9999999995960153 -0.000008233618352388301
vn 0.00004508901009221197 0.9999999973382334 0.00005736300793960655
vn 0 0.9999999950000001 0.00009999999950021103
vn -0.00006036666723658499 0.9999999946646383 0.00008382475098063192
vn -0.0000801300884379471 0.9999999965404502 0.00002232192951213692
vn -0.000030555578572029426 0.9999999993182365 -0.000020733639071213954
vn 0.000027206198027364563 0.9999999995960153 -0.000008233618352388301
vn 0.00004508901009221197 0.9999999973382334 0.00005736300793960655
vn 0 0.9999999950000001 0.00009999999950021103
vn -0.00006036666723658499 0.9999999946646383 0.00008382475098063192
vn -0.0000801300884379471 0.9999999965404502 0.00002232192951213692
vn -0.000030555578572029426 0.9999999993182365 -0.000020733639071213954
vn -9.303454918585033e-7 0.999999999598697 -0.000028315021355208457
vn 9.303453540250052e-7 0.9999999995426749 -0.000030228874691303914
vn 0 0.9999999996446872 -0.000026657567540742276
vn -9.30345354025007e-7 0.9999999995426749 -0.00003022887469130391
vn 9.303454918585032e-7 0.999999999598697 -0.000028315021355208454
vn 0 0.9999999995918368 -0.000028571428559763623
vn -9.303454918585033e-7 0.999999999598697 -0.000028315021355208457
vn 9.30345354025005e-7 0.9999999995426749 -0.000030228874691303914
vn 0 0.9999999996446872 -0.000026657567540742276
vn -9.30345354025007e-7 0.9999999995426749 -0.000030228874691303914
vn 9.303454918585035e-7 0.999999999598697 -0.000028315021355208457
vn 0 0.9999999995918368 -0.000028571428559763623
vn 0 0.4472135954999581 0.894427190999916
vn -0.4343622930293091 0.46100461505966006 0.7738243620409061
vn -0.7649941004680498 0.456531038760493 0.45427242586067723
vn -0.894426694053754 0.44721458929477637 -0.00000927238588814065
vn -0.7695578899594562 0.4460069109298919 -0.4570103821620743
vn -0.4369334962978212 0.45070701492675375 -0.7784293844073317
vn 0 0.44721359549995804 -0.8944271909999161
vn 0.44288476140269967 0.4257732870691042 -0.7890311756424103
vn 0.7907009700284117 0.39281195762116067 -0.4695644172485395
vn 0.4528105958162642 0.42410027953174123 0.7842840794110376
vn 0.7970351466422174 0.3911388738457671 0.4601579689451049
vn 0.9284770465961258 0.37138978699587516 -0.000007700261803540165
usemtl m_03fa98e4-924a-4c82-ba2c-502cc026d3d5
f 64/145/37 62/146/37 61/147/37
f 62/148/38 64/149/38 65/150/38 63/151/38
f 66/152/39 64/153/39 61/154/39
f 64/155/40 66/156/40 67/157/40 65/158/40
f 68/159/41 66/160/41 61/161/41
f 66/162/42 68/163/42 69/164/42 67/165/42
f 70/166/43 68/167/43 61/168/43
f 68/169/44 70/170/44 71/171/44 69/172/44
f 72/173/45 70/174/45 61/175/45
f 70/176/46 72/177/46 73/178/46 71/179/46
f 74/180/47 72/181/47 61/182/47
f 72/183/48 74/184/48 75/185/48 73/186/48
f 76/187/49 74/188/49 61/189/49
f 74/190/50 76/191/50 77/192/50 75/193/50
f 78/194/51 76/195/51 61/196/51
f 76/197/52 78/198/52 79/199/52 77/200/52
f 80/201/53 78/202/53 61/203/53
f 78/204/54 80/205/54 81/206/54 79/207/54
f 82/208/55 80/209/55 61/210/55
f 80/211/56 82/212/56 83/213/56 81/214/56
f 84/215/57 82/216/57 61/217/57
f 82/218/58 84/219/58 85/220/58 83/221/58
f 62/222/59 84/223/59 61/224/59
f 84/225/60 62/226/60 63/227/60 85/228/60
f 79/229/61 57/230/61 56/231/61 77/232/61
f 77/233/62 56/234/62 55/235/62 75/236/62
f 75/237/63 55/238/63 54/239/63 73/240/63
f 73/241/64 54/242/64 53/243/64 71/244/64
f 71/245/65 53/246/65 52/247/65 69/248/65
f 69/249/66 52/250/66 51/251/66 67/252/66
f 67/253/67 51/254/67 50/255/67 65/256/67
f 65/257/68 50/258/68 49/259/68 63/260/68
f 63/261/69 49/262/69 60/263/69 85/264/69
f 85/265/70 60/266/70 59/267/70 83/268/70
f 83/269/71 59/270/71 58/271/71 81/272/71
f 81/273/72 58/274/72 57/275/72 79/276/72
f 86/277/73 87/278/73 98/279/73
f 87/280/74 88/281/74 98/282/74
f 88/283/75 89/284/75 98/285/75
f 89/286/76 90/287/76 98/288/76
f 90/289/77 91/290/77 98/291/77
f 91/292/78 92/293/78 98/294/78
f 92/295/79 93/296/79 98/297/79
f 93/298/80 94/299/80 98/300/80
f 94/301/81 95/302/81 98/303/81
f 95/304/82 96/305/82 98/306/82
f 96/307/83 97/308/83 98/309/83
f 97/310/84 86/311/84 98/312/84
f 91/313/85 54/314/85 55/315/85 92/316/85
f 54/317/86 91/318/86 90/319/86 53/320/86
f 53/321/87 90/322/87 89/323/87 52/324/87
f 88/325/88 51/326/88 52/327/88 89/328/88
f 51/329/89 88/330/89 87/331/89 50/332/89
f 50/333/90 87/334/90 86/335/90 49/336/90
f 49/337/91 86/338/91 97/339/91 60/340/91
f 60/341/92 97/342/92 96/343/92 59/344/92
f 59/345/93 96/346/93 95/347/93 58/348/93
f 92/349/94 55/350/94 56/351/94 93/352/94
f 93/353/95 56/354/95 57/355/95 94/356/95
f 94/357/96 57/358/96 58/359/96 95/360/96