# Made in Blockbench 5.0.7
mtllib arcane_brazier_full.mtl

o mesh
v 1 0.25 1
v 1 0.25 0
v 1 0 1
v 1 0 0
v 0 0.25 1
v 0 0.25 0
v 0 0 1
v 0 0 0
vt 1 0.875
vt 0 0.875
vt 0 0.625
vt 1 0.625
vt 1 0.625
vt 1 0.875
vt 0 0.875
vt 0 0.625
vt 0 0
vt 1 0
vt 1 1
vt 0 1
vt 1 0
vt 1 1
vt 0 1
vt 0 0
vt 1 0.625
vt 1 0.875
vt 0 0.875
vt 0 0.625
vt 1 0.875
vt 0 0.875
vt 0 0.625
vt 1 0.625
vn 1 0 0
vn -1 0 0
vn 0 1 0
vn 0 -1 0
vn 0 0 1
vn 0 0 -1
usemtl m_124d271d-9a57-d078-a095-90c035b78e9d
f 2/1/1 1/2/1 3/3/1 4/4/1
f 7/5/2 5/6/2 6/7/2 8/8/2
f 5/9/3 1/10/3 2/11/3 6/12/3
f 4/13/4 3/14/4 7/15/4 8/16/4
f 3/17/5 1/18/5 5/19/5 7/20/5
f 6/21/6 2/22/6 4/23/6 8/24/6
o mesh
v 0.75 0.75 0.75
v 0.75 0.75 0.25
v 0.75 0.25 0.75
v 0.75 0.25 0.25
v 0.25 0.75 0.75
v 0.25 0.75 0.25
v 0.25 0.25 0.75
v 0.25 0.25 0.25
vt 0.5 1
vt 0 1
vt 0 0.5
vt 0.5 0.5
vt 0.5 0.5
vt 0.5 1
vt 0 1
vt 0 0.5
vt 0 0.5
vt 0.5 0.5
vt 0.5 1
vt 0 1
vt 0.5 0.5
vt 0.5 1
vt 0 1
vt 0 0.5
vt 0.5 0.5
vt 0.5 1
vt 0 1
vt 0 0.5
vt 0.5 1
vt 0 1
vt 0 0.5
vt 0.5 0.5
vn 1 0 0
vn -1 0 0
vn 0 1 0
vn 0 -1 0
vn 0 0 1
vn 0 0 -1
usemtl none
f 10/25/7 9/26/7 11/27/7 12/28/7
f 15/29/8 13/30/8 14/31/8 16/32/8
f 13/33/9 9/34/9 10/35/9 14/36/9
f 12/37/10 11/38/10 15/39/10 16/40/10
f 11/41/11 9/42/11 13/43/11 15/44/11
f 14/45/12 10/46/12 12/47/12 16/48/12
o mesh
v 0.25000000000000006 0.75 0.25
v 5.551115123125783e-17 0.75 0.24999999999999994
v 0.25000000000000006 0.25 0.25
v 5.551115123125783e-17 0.25 0.24999999999999994
v 0.24999999999999994 0.75 0.75
v -5.551115123125783e-17 0.75 0.75
v 0.24999999999999994 0.25 0.75
v -5.551115123125783e-17 0.25 0.75
vt 0.6875 1
vt 0.4375 1
vt 0.4375 0.5
vt 0.6875 0.5
vt 0.6875 0.5
vt 0.6875 1
vt 0.4375 1
vt 0.4375 0.5
vt 0 0
vt 1 0
vt 1 1
vt 0 1
vt 1 0
vt 1 1
vt 0 1
vt 0 0
vt 1 0.5
vt 1 1
vt 0 1
vt 0 0.5
vt 1 0.5
vt 0.5 0.5
vt 0.5 0
vt 1 0
vn 2.220446049250313e-16 0 -1
vn -2.220446049250313e-16 0 1
vn 0 1 0
vn 0 -1 0
vn 1 0 2.220446049250313e-16
vn -1 0 -2.220446049250313e-16
usemtl m_f8383e48-3a1d-0cbb-c7ed-840e10f1e370
f 18/49/13 17/50/13 19/51/13 20/52/13
f 23/53/14 21/54/14 22/55/14 24/56/14
usemtl none
f 21/57/15 17/58/15 18/59/15 22/60/15
f 20/61/16 19/62/16 23/63/16 24/64/16
f 19/65/17 17/66/17 21/67/17 23/68/17
usemtl m_f8383e48-3a1d-0cbb-c7ed-840e10f1e370
f 22/69/18 18/70/18 20/71/18 24/72/18
o mesh
v 0.75 0.75 1
v 0.75 0.75 0.75
v 0.75 0.25 1
v 0.75 0.25 0.75
v 0.25 0.75 1
v 0.25 0.75 0.75
v 0.25 0.25 1
v 0.25 0.25 0.75
vt 0.6875 1
vt 0.4375 1
vt 0.4375 0.5
vt 0.6875 0.5
vt 0.6875 0.5
vt 0.6875 1
vt 0.4375 1
vt 0.4375 0.5
vt 0 0
vt 1 0
vt 1 1
vt 0 1
vt 1 0
vt 1 1
vt 0 1
vt 0 0
vt 0.5 0
vt 0.5 0.5
vt 0 0.5
vt 0 0
vt 1 1
vt 0 1
vt 0 0.5
vt 1 0.5
vn 1 0 0
vn -1 0 0
vn 0 1 0
vn 0 -1 0
vn 0 0 1
vn 0 0 -1
usemtl m_f8383e48-3a1d-0cbb-c7ed-840e10f1e370
f 26/73/19 25/74/19 27/75/19 28/76/19
f 31/77/20 29/78/20 30/79/20 32/80/20
usemtl none
f 29/81/21 25/82/21 26/83/21 30/84/21
f 28/85/22 27/86/22 31/87/22 32/88/22
usemtl m_f8383e48-3a1d-0cbb-c7ed-840e10f1e370
f 27/89/23 25/90/23 29/91/23 31/92/23
usemtl none
f 30/93/24 26/94/24 28/95/24 32/96/24
o mesh
v 1 0.75 0.25
v 0.75 0.75 0.25
v 1 0.25 0.25
v 0.75 0.25 0.25
v 1 0.75 0.75
v 0.75 0.75 0.75
v 1 0.25 0.75
v 0.75 0.25 0.75
vt 0.6875 1
vt 0.4375 1
vt 0.4375 0.5
vt 0.6875 0.5
vt 0.6875 0.5
vt 0.6875 1
vt 0.4375 1
vt 0.4375 0.5
vt 0 0
vt 1 0
vt 1 1
vt 0 1
vt 1 0
vt 1 1
vt 0 1
vt 0 0
vt 0.5 0.5
vt 0.5 1
vt 0 1
vt 0 0.5
vt 1 1
vt 0 1
vt 0 0.5
vt 1 0.5
vn 2.220446049250313e-16 0 -1
vn -2.220446049250313e-16 0 1
vn 0 1 0
vn 0 -1 0
vn 1 0 2.220446049250313e-16
vn -1 0 -2.220446049250313e-16
usemtl m_f8383e48-3a1d-0cbb-c7ed-840e10f1e370
f 34/97/25 33/98/25 35/99/25 36/100/25
f 39/101/26 37/102/26 38/103/26 40/104/26
usemtl none
f 37/105/27 33/106/27 34/107/27 38/108/27
f 36/109/28 35/110/28 39/111/28 40/112/28
usemtl m_f8383e48-3a1d-0cbb-c7ed-840e10f1e370
f 35/113/29 33/114/29 37/115/29 39/116/29
usemtl none
f 38/117/30 34/118/30 36/119/30 40/120/30
o mesh
v 0.75 0.75 0.25
v 0.75 0.75 0
v 0.75 0.25 0.25
v 0.75 0.25 0
v 0.25 0.75 0.25
v 0.25 0.75 0
v 0.25 0.25 0.25
v 0.25 0.25 0
vt 0.6875 1
vt 0.4375 1
vt 0.4375 0.5
vt 0.6875 0.5
vt 0.6875 0.5
vt 0.6875 1
vt 0.4375 1
vt 0.4375 0.5
vt 0 0
vt 1 0
vt 1 1
vt 0 1
vt 1 0
vt 1 1
vt 0 1
vt 0 0
vt 1 0.5
vt 1 1
vt 0 1
vt 0 0.5
vt 1 1
vt 0.5 1
vt 0.5 0.5
vt 1 0.5
vn 1 0 0
vn -1 0 0
vn 0 1 0
vn 0 -1 0
vn 0 0 1
vn 0 0 -1
usemtl m_f8383e48-3a1d-0cbb-c7ed-840e10f1e370
f 42/121/31 41/122/31 43/123/31 44/124/31
f 47/125/32 45/126/32 46/127/32 48/128/32
usemtl none
f 45/129/33 41/130/33 42/131/33 46/132/33
f 44/133/34 43/134/34 47/135/34 48/136/34
f 43/137/35 41/138/35 45/139/35 47/140/35
usemtl m_f8383e48-3a1d-0cbb-c7ed-840e10f1e370
f 46/141/36 42/142/36 44/143/36 48/144/36
o cylinder_selection
v 0.65072125 1.0625125 1.0625
v 0.9117787500000001 1.0625093749999999 0.9117787500000001
v 1.0625 1.062503125 0.65072125
v 1.0625 1.062496875 0.34927874999999997
v 0.9117787500000001 1.0624906250000001 0.08822124999999997
v 0.65072125 1.0624875 -0.0625
v 0.34927874999999997 1.0624875 -0.0625
v 0.08822124999999997 1.0624906250000001 0.08822124999999997
v -0.0625 1.062496875 0.34927874999999997
v -0.0625 1.062503125 0.65072125
v 0.08822124999999997 1.0625093749999999 0.9117787500000001
v 0.34927874999999997 1.0625125 1.0625
v 0.5 0.75 0.5
v 0.667468125 0.75 1.125
v 0.684215 1.0625 1.1875
v 0.9575318749999999 0.75 0.9575318749999999
v 1.003285 1.0625 1.003285
v 1.125 0.75 0.667468125
v 1.1875 1.0625 0.684215
v 1.125 0.75 0.33253187500000003
v 1.1875 1.0625 0.315785
v 0.9575318749999999 0.75 0.04246812500000002
v 1.003285 1.0625 -0.0032849999999999824
v 0.667468125 0.75 -0.125
v 0.684215 1.0625 -0.1875
v 0.33253187500000003 0.75 -0.125
v 0.315785 1.0625 -0.1875
v 0.04246812500000002 0.75 0.04246812500000002
v -0.0032849999999999824 1.0625 -0.0032849999999999824
v -0.125 0.75 0.33253187500000003
v -0.1875 1.0625 0.315785
v -0.125 0.75 0.667468125
v -0.1875 1.0625 0.684215
v 0.04246812500000002 0.75 0.9575318749999999
v -0.0032849999999999824 1.0625 1.003285
v 0.33253187500000003 0.75 1.125
v 0.315785 1.0625 1.1875
v 0.608076875 0.8125125 0.9375
v 0.816923125 0.812509375 0.8202725
v 0.9375 0.812503125 0.6172275
v 0.9375 0.812496875 0.3827725
v 0.816923125 0.812490625 0.17972749999999998
v 0.608076875 0.8124875 0.0625
v 0.366923125 0.8124875 0.0625
v 0.158076875 0.812490625 0.17972749999999998
v 0.03749999999999998 0.812496875 0.3827725
v 0.03749999999999998 0.812503125 0.6172275
v 0.158076875 0.812509375 0.8202725
v 0.366923125 0.8125125 0.9375
v 0.4875 0.8125 0.5
v -0.0625 0.8125 0.35672187499999997
v -0.0625 0.8125 0.643278125
vt 0.3276075 0.5625
vt 0.068975 0.559368125
vt 0.204158125 0.07842812499999996
vt 0.26674375 0.6813125
vt 0.60168125 0.6813125
vt 0.618425 1
vt 0.25 1
vt 0.651466875 0.09881812499999998
vt 0.87339625 0.23031625
vt 0.516658125 0.5784281250000001
vt 0.32924375 0.6813125
vt 0.66418125 0.6813125
vt 0.680925 1
vt 0.3125 1
vt 0.9526075 0.625
vt 0.693975 0.621868125
vt 0.829158125 0.14092812499999996
vt 0.51674375 0.6813125
vt 0.85168125 0.6813125
vt 0.868425 1
vt 0.5 1
vt 0.6401075 0.9375
vt 0.381475 0.934368125
vt 0.516658125 0.45342812499999996
vt 0.20424375 0.6813125
vt 0.53918125 0.6813125
vt 0.555925 1
vt 0.1875 1
vt 0.8901075 0.6875
vt 0.631475 0.684368125
vt 0.766658125 0.20342812499999996
vt 0.45424375 0.6813125
vt 0.78918125 0.6813125
vt 0.805925 1
vt 0.4375 1
vt 0.3901075 0.5625
vt 0.131475 0.559368125
vt 0.266658125 0.07842812499999996
vt 0.32924375 0.6813125
vt 0.66418125 0.6813125
vt 0.680925 1
vt 0.3125 1
vt 0.8901075 0.9375
vt 0.631475 0.934368125
vt 0.766658125 0.45342812499999996
vt 0.20424375 0.6813125
vt 0.53918125 0.6813125
vt 0.555925 1
vt 0.1875 1
vt 0.5776075 0.5
vt 0.318975 0.496868125
vt 0.454158125 0.01592812499999996
vt 0.26674375 0.6813125
vt 0.60168125 0.6813125
vt 0.618425 1
vt 0.25 1
vt 0.8901075 0.625
vt 0.631475 0.621868125
vt 0.766658125 0.14092812499999996
vt 0.39174375 0.6813125
vt 0.72668125 0.6813125
vt 0.743425 1
vt 0.375 1
vt 0.9526075 0.8125
vt 0.693975 0.809368125
vt 0.829158125 0.32842812499999996
vt 0.57924375 0.6813125
vt 0.91418125 0.6813125
vt 0.930925 1
vt 0.5625 1
vt 0.3901075 0.6875
vt 0.131475 0.684368125
vt 0.266658125 0.20342812499999996
vt 0.39174375 0.6813125
vt 0.72668125 0.6813125
vt 0.743425 1
vt 0.375 1
vt 0.9526075 0.5625
vt 0.693975 0.559368125
vt 0.829158125 0.07842812499999996
vt 0.07924375 0.6813125
vt 0.41418125 0.6813125
vt 0.430925 1
vt 0.0625 1
vt 0.375 1
vt 0.40849375 0.875
vt 0.70993125 0.875
vt 0.743425 1
vt 0.5625 1
vt 0.59599375 0.875
vt 0.89743125 0.875
vt 0.930925 1
vt 0.5625 1
vt 0.59599375 0.875
vt 0.89743125 0.875
vt 0.930925 1
vt 0.375 1
vt 0.40849625 0.8749975
vt 0.709935625 0.8749975
vt 0.743431875 0.999994375
vt 0.5 0.999994375
vt 0.533493125 0.874999375
vt 0.834935625 0.874999375
vt 0.868426875 1
vt 0.5625 1
vt 0.59599375 0.875
vt 0.89743125 0.875
vt 0.930925 1
vt 0.5625 1
vt 0.59599375 0.875
vt 0.89743125 0.875
vt 0.930925 1
vt 0.5625 1
vt 0.59599375 0.875
vt 0.89743125 0.875
vt 0.930925 1
vt 0.5625 1
vt 0.59599375 0.875
vt 0.89743125 0.875
vt 0.930925 1
vt 0.5625 1
vt 0.59599375 0.875
vt 0.89743125 0.875
vt 0.930925 1
vt 0.5625 1
vt 0.59599375 0.875
vt 0.89743125 0.875
vt 0.930925 1
vt 0.5625 1
vt 0.59599375 0.875
vt 0.89743125 0.875
vt 0.930925 1
vt 0.35428875 0.92525625
vt 0.157914375 0.80108375
vt 0.493315 0.507534375
vt 0.157914375 0.80108375
vt 0.05141125 0.598255625
vt 0.493315 0.507534375
vt 0.05141125 0.598255625
vt 0.06331625 0.37111937500000003
vt 0.493315 0.507534375
vt 0.06331625 0.37111937500000003
vt 0.190438125 0.18053687500000004
vt 0.493315 0.507534375
vt 0.190438125 0.18053687500000004
vt 0.398715 0.07757312500000002
vt 0.493315 0.507534375
vt 0.398715 0.07757312500000002
vt 0.632339375 0.08981687500000002
vt 0.493315 0.507534375
vt 0.632339375 0.08981687500000002
vt 0.8287125 0.2139875
vt 0.493315 0.507534375
vt 0.8287125 0.2139875
vt 0.9352175 0.41681375
vt 0.493315 0.507534375
vt 0.9352175 0.41681375
vt 0.923315 0.64395
vt 0.493315 0.507534375
vt 0.923315 0.64395
vt 0.79619375 0.834534375
vt 0.493315 0.507534375
vt 0.79619375 0.834534375
vt 0.587915625 0.9375
vt 0.493315 0.507534375
vt 0.587915625 0.9375
vt 0.35428875 0.92525625
vt 0.493315 0.507534375
vt 0.38379375 0.6579937499999999
vt 0.4264375 0.9375
vt 0.125 0.9375
vt 0.14264375 0.6579937499999999
vt 0.5625 0.5625
vt 0.60514375 0.28299375000000004
vt 0.84629375 0.28299375000000004
vt 0.8639375 0.5625
vt 0.5625 0.8125
vt 0.60514375 0.5329937499999999
vt 0.84629375 0.5329937499999999
vt 0.8639375 0.8125
vt 0.25 0.8125
vt 0.29264375 0.5329937499999999
vt 0.53379375 0.5329937499999999
vt 0.5514375 0.8125
vt 0.375 0.935851875
vt 0.4100175 0.656531875
vt 0.6461675 0.656531875
vt 0.67641875 0.9375
vt 0.625 0.935858125
vt 0.6629175 0.655800625
vt 0.9024175 0.655800625
vt 0.92641875 0.9375
vt 0.125 0.5625
vt 0.16764375 0.28299375000000004
vt 0.40879375 0.28299375000000004
vt 0.4264375 0.5625
vt 0.125 0.5625
vt 0.16764375 0.28299375000000004
vt 0.40879375 0.28299375000000004
vt 0.4264375 0.5625
vt 0.125 0.5625
vt 0.16764375 0.28299375000000004
vt 0.40879375 0.28299375000000004
vt 0.4264375 0.5625
vt 0.125 0.6832693750000001
vt 0.4010575 0.63605625
vt 0.4010575 0.9375
vt 0.1262325 0.922750625
vt 0.125 0.5625
vt 0.16764375 0.28299375000000004
vt 0.40879375 0.28299375000000004
vt 0.4264375 0.5625
vt 0.125 0.5625
vt 0.16764375 0.28299375000000004
vt 0.40879375 0.28299375000000004
vt 0.4264375 0.5625
vn 0 -1 0
vn 0.4902897930179793 -0.19611589325527032 0.8492081460249157
vn 0 -1 0
vn 0.8492080850771194 -0.19611624513752315 0.4902897578298072
vn 0 -1 0
vn 0.9805806756909203 -0.19611613513818407 0
vn 0 -1 0
vn 0.8492081460249157 -0.19611589325527032 -0.4902897930179793
vn 0 -1 0
vn 0.4902897578298072 -0.19611624513752315 -0.8492080850771194
vn 0 -1 0
vn 0 -0.19611613513818407 -0.9805806756909203
vn 0 -1 0
vn -0.4902897930179793 -0.19611589325527032 -0.8492081460249157
vn 0 -1 0
vn -0.8492080850771194 -0.19611624513752315 -0.4902897578298072
vn 0 -1 0
vn -0.9805806756909203 -0.19611613513818407 0
vn 0 -1 0
vn -0.8492081460249157 -0.19611589325527032 0.4902897930179793
vn 0 -1 0
vn -0.4902897578298072 -0.19611624513752315 0.8492080850771194
vn 0 -1 0
vn 0 -0.19611613513818407 0.9805806756909203
vn 0.000027206198027364563 0.9999999995960153 -0.000008233618352388301
vn 0.00004508901009221197 0.9999999973382334 0.00005736300793960655
vn 0 0.9999999950000001 0.00009999999950021103
vn -0.00006036666723658499 0.9999999946646383 0.00008382475098063192
vn -0.0000801300884379471 0.9999999965404502 0.00002232192951213692
vn -0.000030555578572029426 0.9999999993182365 -0.000020733639071213954
vn 0.000027206198027364563 0.9999999995960153 -0.000008233618352388301
vn 0.00004508901009221197 0.9999999973382334 0.00005736300793960655
vn 0 0.9999999950000001 0.00009999999950021103
vn -0.00006036666723658499 0.9999999946646383 0.00008382475098063192
vn -0.0000801300884379471 0.9999999965404502 0.00002232192951213692
vn -0.000030555578572029426 0.9999999993182365 -0.000020733639071213954
vn -9.303454918585033e-7 0.999999999598697 -0.000028315021355208457
vn 9.303453540250052e-7 0.9999999995426749 -0.000030228874691303914
vn 0 0.9999999996446872 -0.000026657567540742276
vn -9.30345354025007e-7 0.9999999995426749 -0.00003022887469130391
vn 9.303454918585032e-7 0.999999999598697 -0.000028315021355208454
vn 0 0.9999999995918368 -0.000028571428559763623
vn -9.303454918585033e-7 0.999999999598697 -0.000028315021355208457
vn 9.30345354025005e-7 0.9999999995426749 -0.000030228874691303914
vn 0 0.9999999996446872 -0.000026657567540742276
vn -9.30345354025007e-7 0.9999999995426749 -0.000030228874691303914
vn 9.303454918585035e-7 0.999999999598697 -0.000028315021355208457
vn 0 0.9999999995918368 -0.000028571428559763623
vn 0 0.4472135954999581 0.894427190999916
vn -0.4343622930293091 0.46100461505966006 0.7738243620409061
vn -0.7649941004680498 0.456531038760493 0.45427242586067723
vn -0.894426694053754 0.44721458929477637 -0.00000927238588814065
vn -0.7695578899594562 0.4460069109298919 -0.4570103821620743
vn -0.4369334962978212 0.45070701492675375 -0.7784293844073317
vn 0 0.44721359549995804 -0.8944271909999161
vn 0.44288476140269967 0.4257732870691042 -0.7890311756424103
vn 0.7907009700284117 0.39281195762116067 -0.4695644172485395
vn 0.4528105958162642 0.42410027953174123 0.7842840794110376
vn 0.7970351466422174 0.3911388738457671 0.4601579689451049
vn 0.9284770465961258 0.37138978699587516 -0.000007700261803540165
usemtl m_03fa98e4-924a-4c82-ba2c-502cc026d3d5
f 64/145/37 62/146/37 61/147/37
f 62/148/38 64/149/38 65/150/38 63/151/38
f 66/152/39 64/153/39 61/154/39
f 64/155/40 66/156/40 67/157/40 65/158/40
f 68/159/41 66/160/41 61/161/41
f 66/162/42 68/163/42 69/164/42 67/165/42
f 70/166/43 68/167/43 61/168/43
f 68/169/44 70/170/44 71/171/44 69/172/44
f 72/173/45 70/174/45 61/175/45
f 70/176/46 72/177/46 73/178/46 71/179/46
f 74/180/47 72/181/47 61/182/47
f 72/183/48 74/184/48 75/185/48 73/186/48
f 76/187/49 74/188/49 61/189/49
f 74/190/50 76/191/50 77/192/50 75/193/50
f 78/194/51 76/195/51 61/196/51
f 76/197/52 78/198/52 79/199/52 77/200/52
f 80/201/53 78/202/53 61/203/53
f 78/204/54 80/205/54 81/206/54 79/207/54
f 82/208/55 80/209/55 61/210/55
f 80/211/56 82/212/56 83/213/56 81/214/56
f 84/215/57 82/216/57 61/217/57
f 82/218/58 84/219/58 85/220/58 83/221/58
f 62/222/59 84/223/59 61/224/59
f 84/225/60 62/226/60 63/227/60 85/228/60
f 79/229/61 57/230/61 56/231/61 77/232/61
f 77/233/62 56/234/62 55/235/62 75/236/62
f 75/237/63 55/238/63 54/239/63 73/240/63
f 73/241/64 54/242/64 53/243/64 71/244/64
f 71/245/65 53/246/65 52/247/65 69/248/65
f 69/249/66 52/250/66 51/251/66 67/252/66
f 67/253/67 51/254/67 50/255/67 65/256/67
f 65/257/68 50/258/68 49/259/68 63/260/68
f 63/261/69 49/262/69 60/263/69 85/264/69
f 85/265/70 60/266/70 59/267/70 83/268/70
f 83/269/71 59/270/71 58/271/71 81/272/71
f 81/273/72 58/274/72 57/275/72 79/276/72
usemtl m_01e5bb01-e4b1-c40c-11b7-2737ca0914b7
f 86/277/73 87/278/73 98/279/73
f 87/280/74 88/281/74 98/282/74
f 88/283/75 89/284/75 98/285/75
f 89/286/76 90/287/76 98/288/76
f 90/289/77 91/290/77 98/291/77
f 91/292/78 92/293/78 98/294/78
f 92/295/79 93/296/79 98/297/79
f 93/298/80 94/299/80 98/300/80
f 94/301/81 95/302/81 98/303/81
f 95/304/82 96/305/82 98/306/82
f 96/307/83 97/308/83 98/309/83
f 97/310/84 86/311/84 98/312/84
usemtl m_03fa98e4-924a-4c82-ba2c-502cc026d3d5
f 91/313/85 54/314/85 55/315/85 92/316/85
f 54/317/86 91/318/86 90/319/86 53/320/86
f 53/321/87 90/322/87 89/323/87 52/324/87
f 88/325/88 51/326/88 52/327/88 89/328/88
f 51/329/89 88/330/89 87/331/89 50/332/89
f 50/333/90 87/334/90 86/335/90 49/336/90
f 49/337/91 86/338/91 97/339/91 60/340/91
f 60/341/92 97/342/92 96/343/92 59/344/92
f 59/345/93 96/346/93 95/347/93 58/348/93
f 92/349/94 55/350/94 56/351/94 93/352/94
f 93/353/95 56/354/95 57/355/95 94/356/95
f 94/357/96 57/358/96 58/359/96 95/360/96
o mesh
v 0.26181047844202 0.9524671187255455 0.47939274092323325
v 0.3456318946235664 1.1046574857418505 0.2996371780697784
v 0.4767215714181051 0.824977687278111 0.4716683001645479
v 0.5605429875996515 0.9771680542944161 0.2919127373110931
v 0.16544039851497783 0.8005311550544899 0.3058177696911941
v 0.30590640630918264 0.9527214318527476 0.1524759438165022
v 0.38035149149106295 0.6730417236070555 0.2980933289325088
v 0.4641729076726094 0.8252320906233606 0.11833776607905394
vt 0.25 1
vt 0 1
vt 0 0.75
vt 0.25 0.75
vt 0.25 0.75
vt 0.25 1
vt 0 1
vt 0 0.75
vt 0 0.75
vt 0.25 0.75
vt 0.25 1
vt 0 1
vt 0.25 0.75
vt 0.25 1
vt 0 1
vt 0 0.75
vt 0.25 0.75
vt 0.25 1
vt 0 1
vt 0 0.75
vt 0.25 1
vt 0 1
vt 0 0.75
vt 0.25 0.75
vn 0.38548031970816854 0.6077438546842221 0.6942998849281565
vn -0.32740035414052454 -0.5034582683391474 -0.7995866307971928
vn -0.8596443719043405 0.5099577257897374 0.030897763034741288
vn 0.8596443719043405 -0.5099577257897374 -0.030897763034741288
vn -0.3352856647261857 -0.6087614680652201 0.7190222514138195
vn 0.3352856647261857 0.6087614680652201 -0.7190222514138195
usemtl m_e9741a16-3bf6-bd0d-2e54-27c968c74147
f 102/361/97 101/362/97 103/363/97 104/364/97
f 107/365/98 105/366/98 106/367/98 108/368/98
f 105/369/99 101/370/99 102/371/99 106/372/99
f 104/373/100 103/374/100 107/375/100 108/376/100
f 103/377/101 101/378/101 105/379/101 107/380/101
f 106/381/102 102/382/102 104/383/102 108/384/102
o mesh
v 0.5053238438205594 0.7889434253221188 0.5350675096266462
v 0.4666885797530361 1.0335283853769608 0.5006362202897059
v 0.3031141448985843 0.7376096766344873 0.39731380220808243
v 0.264478880831061 0.9821946366893292 0.36288251287114226
v 0.3634839550998017 0.795504184473805 0.7408304859052678
v 0.3512624586280336 1.040089153033307 0.6497546562816593
v 0.16127425617782665 0.7441704357861734 0.6030767784867042
v 0.06599471406681423 0.9887555208541914 0.5422313887472797
vt 0.25 1
vt 0 1
vt 0 0.75
vt 0.25 0.75
vt 0.25 0.75
vt 0.25 1
vt 0 1
vt 0 0.75
vt 0 0.75
vt 0.25 0.75
vt 0.25 1
vt 0 1
vt 0.25 0.75
vt 0.25 1
vt 0 1
vt 0 0.75
vt 0.25 0.75
vt 0.25 1
vt 0 1
vt 0 0.75
vt 0.25 1
vt 0 1
vt 0 0.75
vt 0.25 0.75
vn 0.5673595548830307 -0.026243036606744704 -0.823051905114487
vn -0.5878044151466185 0.2563519827664034 0.7673132544573144
vn 0.8088387956879005 0.20533499475052622 0.551014829674255
vn -0.8088387956879005 -0.20533499475052622 -0.551014829674255
vn 0.1545410562700933 -0.9783398402193679 0.13772515734776075
vn -0.14331192473336138 0.9776312230562195 -0.15394441832953762
usemtl m_e9741a16-3bf6-bd0d-2e54-27c968c74147
f 110/385/103 109/386/103 111/387/103 112/388/103
f 115/389/104 113/390/104 114/391/104 116/392/104
f 113/393/105 109/394/105 110/395/105 114/396/105
f 112/397/106 111/398/106 115/399/106 116/400/106
f 111/401/107 109/402/107 113/403/107 115/404/107
f 114/405/108 110/406/108 112/407/108 116/408/108
o mesh
v 0.592126380338875 1.0390690281957065 0.766385198346535
v 0.41693724325777815 1.0852416906863551 0.5692972452512886
v 0.6836297530107418 0.8535530029077896 0.5553166445091262
v 0.4820272971455754 0.8997254278480195 0.41487250271505755
v 0.4858003504955791 0.8779735693491187 0.8473220612999425
v 0.31061170798798854 0.9241461707883512 0.650233378191154
v 0.5508904043833764 0.6924573065107832 0.6928973187637114
v 0.34928794851821 0.7386297314510131 0.5524531769696428
vt 0.25 1
vt 0 1
vt 0 0.75
vt 0.25 0.75
vt 0.25 0.75
vt 0.25 1
vt 0 1
vt 0 0.75
vt 0 0.75
vt 0.25 0.75
vt 0.25 1
vt 0 1
vt 0.25 0.75
vt 0.25 1
vt 0 1
vt 0 0.75
vt 0.25 0.75
vt 0.25 1
vt 0 1
vt 0 0.75
vt 0.25 1
vt 0 1
vt 0 0.75
vt 0.25 0.75
vn 0.5993308397380172 0.7119603631821934 -0.36594396537776486
vn -0.6609868489000367 -0.6033289167479613 0.44619570123089697
vn -0.5017625335818762 0.6293294637307121 0.5934465316891752
vn 0.2603602155511892 -0.7420650513533421 -0.6176989701449244
vn 0.7934257698871264 -0.24338396435456192 0.5578886928179113
vn -0.778107033420453 0.21750653290519303 -0.5892710349959384
usemtl m_e9741a16-3bf6-bd0d-2e54-27c968c74147
f 118/409/109 117/410/109 119/411/109 120/412/109
f 123/413/110 121/414/110 122/415/110 124/416/110
f 121/417/111 117/418/111 118/419/111 122/420/111
f 120/421/112 119/422/112 123/423/112 124/424/112
f 119/425/113 117/426/113 121/427/113 123/428/113
f 122/429/114 118/430/114 120/431/114 124/432/114
o mesh
v 0.8375557788648508 0.7889434260141857 0.4141448052199772
v 0.6856317006987875 1.0335280410348775 0.32688591556373264
v 0.6353460799428757 0.7376096773265541 0.2763910978014135
v 0.5967108158753525 0.9821946373813961 0.2419598084644733
v 0.6957158901440931 0.7955041851658718 0.6199077814985989
v 0.6570806260765698 1.0400891452207137 0.5854764921616586
v 0.49350619122211803 0.7441704364782402 0.4821540740800352
v 0.45487092715459476 0.9887553965330822 0.447722784743095
vt 0.25 1
vt 0 1
vt 0 0.75
vt 0.25 0.75
vt 0.25 0.75
vt 0.25 1
vt 0 1
vt 0 0.75
vt 0 0.75
vt 0.25 0.75
vt 0.25 1
vt 0 1
vt 0.25 0.75
vt 0.25 1
vt 0 1
vt 0 0.75
vt 0.25 0.75
vt 0.25 1
vt 0 1
vt 0 0.75
vt 0.25 1
vt 0 1
vt 0 0.75
vt 0.25 0.75
vn 0.5540793915853799 0.047661562627451526 -0.8310983114339031
vn -0.5673595548830307 0.026243036606744704 0.823051905114487
vn 0.6783352785863364 0.5815565310462005 0.4490581822244277
vn -0.8088387956879005 -0.20533499475052622 -0.551014829674255
vn 0.1545410562700933 -0.9783398402193679 0.13772515734776075
vn -0.44627234467875554 0.8920036960274588 -0.07190549803929563
usemtl m_e9741a16-3bf6-bd0d-2e54-27c968c74147
f 126/433/115 125/434/115 127/435/115 128/436/115
f 131/437/116 129/438/116 130/439/116 132/440/116
f 129/441/117 125/442/117 126/443/117 130/444/117
f 128/445/118 127/446/118 131/447/118 132/448/118
f 127/449/119 125/450/119 129/451/119 131/452/119
f 130/453/120 126/454/120 128/455/120 132/456/120
o mesh
v 0.6057493106715479 0.9155835417262271 0.4429889328464414
v 0.5128360125041196 1.160059176929697 0.3787109022552489
v 0.4035396117495728 0.8642497930385955 0.30523522542787773
v 0.36490434768204955 1.1088347530934375 0.27080393609093756
v 0.5208077841116786 0.9195124851480101 0.5662111200057754
v 0.48142587482961713 1.0391319614844032 0.5328629731312816
v 0.31859808518970345 0.8681787364603785 0.42845741258721176
v 0.26757063572591555 1.1121151241646203 0.4303299645169167
vt 0.25 1
vt 0 1
vt 0 0.75
vt 0.25 0.75
vt 0.25 0.75
vt 0.25 1
vt 0 1
vt 0 0.75
vt 0 0.75
vt 0.25 0.75
vt 0.25 1
vt 0 1
vt 0.25 0.75
vt 0.25 1
vt 0 1
vt 0 0.75
vt 0.25 0.75
vt 0.25 1
vt 0 1
vt 0 0.75
vt 0.25 1
vt 0 1
vt 0 0.75
vt 0.25 0.75
vn 0.5635334493794729 -0.0030250030249944736 -0.8260877076843427
vn -0.5696692909870685 0.04128680933725726 0.8208363407409784
vn 0.7535933998141128 0.41947021192842415 0.5061044645735994
vn -0.8088387956879005 -0.20533499475052622 -0.551014829674255
vn 0.1545410562700933 -0.9783398402193679 0.13772515734776075
vn -0.5618288938713654 0.7026025081383588 0.4366898322253056
usemtl m_e9741a16-3bf6-bd0d-2e54-27c968c74147
f 134/457/121 133/458/121 135/459/121 136/460/121
f 139/461/122 137/462/122 138/463/122 140/464/122
f 137/465/123 133/466/123 134/467/123 138/468/123
f 136/469/124 135/470/124 139/471/124 140/472/124
f 135/473/125 133/474/125 137/475/125 139/476/125
f 138/477/126 134/478/126 136/479/126 140/480/126
o mesh
v 0.45176111616023934 0.9548988543652672 0.5140499696633901
v 0.6516906115898397 1.0539538752828688 0.6651077521766066
v 0.5019505104758519 0.7667924437903031 0.6708842866952023
v 0.6739828399940622 0.9078172461911695 0.784975840757431
v 0.6260766412828451 0.8698813067153874 0.3562966359653964
v 0.7168217161219221 0.9237240218432834 0.432749535508986
v 0.6762660355984578 0.6817748961404233 0.5131309529972086
v 0.8867185687481327 0.8071602392887589 0.5804722521927969
vt 0.25 1
vt 0 1
vt 0 0.75
vt 0.25 0.75
vt 0.25 0.75
vt 0.25 1
vt 0 1
vt 0 0.75
vt 0 0.75
vt 0.25 0.75
vt 0.25 1
vt 0 1
vt 0.25 0.75
vt 0.25 1
vt 0 1
vt 0 0.75
vt 0.25 0.75
vt 0.25 1
vt 0 1
vt 0 0.75
vt 0.25 1
vt 0 1
vt 0 0.75
vt 0.25 0.75
vn -0.669467296789593 0.3621402022959231 0.6485892478374141
vn 0.7147001136175087 -0.32547470834411885 -0.6190880081405478
vn -0.04135527446904663 0.8597492530190063 -0.5090392550745478
vn 0.20075757726245042 -0.7524256422998565 0.6273372681272488
vn -0.6881293180728415 -0.5640992096034657 -0.456366216248915
vn 0.9593855157153426 0.25136894438161755 0.12803548740906742
usemtl m_e9741a16-3bf6-bd0d-2e54-27c968c74147
f 142/481/127 141/482/127 143/483/127 144/484/127
f 147/485/128 145/486/128 146/487/128 148/488/128
f 145/489/129 141/490/129 142/491/129 146/492/129
f 144/493/130 143/494/130 147/495/130 148/496/130
f 143/497/131 141/498/131 145/499/131 147/500/131
f 146/501/132 142/502/132 144/503/132 148/504/132