# Made in Blockbench 5.1.4
mtllib brainvoid.mtl

o brain
v 0.31759000000000004 1.3740864792585907 0.31931625000411795
v 0.81759 1.3740864792585907 0.31931625000411795
v 0.31759000000000004 0.9645104571140949 0.032528031828594914
v 0.81759 0.9645104571140949 0.032528031828594914
v 0.31759000000000004 1.7863445428859053 -0.2694492818285949
v 0.81759 1.7863445428859053 -0.2694492818285949
v 0.31759000000000004 1.3767685207414093 -0.556237500004118
v 0.81759 1.3767685207414093 -0.556237500004118
v 0.38009000000000004 1.1437530934737967 -0.22345698201171504
v 0.75509 1.1437530934737967 -0.22345698201171504
v 0.38009000000000004 1.0413590879376728 -0.2951540365555958
v 0.75509 1.0413590879376728 -0.2951540365555958
v 0.38009000000000004 1.3409199934694689 -0.5050404972360559
v 0.75509 1.3409199934694689 -0.5050404972360559
v 0.38009000000000004 1.238525987933345 -0.5767375517799367
v 0.75509 1.238525987933345 -0.5767375517799367
v 0.50509 1.1769511261261714 -0.418599650398917
v 0.63009 1.1769511261261714 -0.418599650398917
v 0.50509 1.0070182334410813 -0.4978410482049616
v 0.63009 1.0070182334410813 -0.4978410482049616
v 0.50509 1.2165711338165295 -0.503566199241721
v 0.63009 1.2165711338165295 -0.503566199241721
v 0.50509 1.0466387531014671 -0.5828072385624928
v 0.63009 1.0466387531014671 -0.5828072385624928
vt 0.28125 1
vt 0.40625 1
vt 0.40625 0.875
vt 0.28125 0.875
vt 0 0.65625
vt 0 0.53125
vt 0.125 0.53125
vt 0.125 0.65625
vt 0 1
vt 0 0.8203125
vt 0.125 0.8203125
vt 0.125 1
vt 0.140625 1
vt 0.265625 1
vt 0.265625 0.8203125
vt 0.140625 0.8203125
vt 0 0.796875
vt 0 0.671875
vt 0.1796875 0.671875
vt 0.1796875 0.796875
vt 0.203125 0.796875
vt 0.3828125 0.796875
vt 0.3828125 0.671875
vt 0.203125 0.671875
vt 0.359375 0.609375
vt 0.453125 0.609375
vt 0.453125 0.578125
vt 0.359375 0.578125
vt 0.359375 0.65625
vt 0.359375 0.625
vt 0.453125 0.625
vt 0.453125 0.65625
vt 0.3359375 0.65625
vt 0.3359375 0.5703125
vt 0.2421875 0.5703125
vt 0.2421875 0.65625
vt 0.140625 0.65625
vt 0.234375 0.65625
vt 0.234375 0.5703125
vt 0.140625 0.5703125
vt 0.359375 0.65625
vt 0.359375 0.625
vt 0.4453125 0.625
vt 0.4453125 0.65625
vt 0.2890625 0.859375
vt 0.375 0.859375
vt 0.375 0.828125
vt 0.2890625 0.828125
vt 0.421875 0.9609375
vt 0.453125 0.9609375
vt 0.453125 0.9140625
vt 0.421875 0.9140625
vt 0.40625 0.8125
vt 0.40625 0.765625
vt 0.4375 0.765625
vt 0.4375 0.8125
vt 0.40625 0.7265625
vt 0.40625 0.703125
vt 0.4375 0.703125
vt 0.4375 0.7265625
vt 0.40625 0.7578125
vt 0.4375 0.7578125
vt 0.4375 0.734375
vt 0.40625 0.734375
vt 0.453125 0.96875
vt 0.453125 0.921875
vt 0.4765625 0.921875
vt 0.4765625 0.96875
vt 0.4296875 0.9921875
vt 0.4296875 0.96875
vt 0.4765625 0.96875
vt 0.4765625 0.9921875
vn 0 -0.573576436351046 0.8191520442889918
vn 0 0.573576436351046 -0.8191520442889918
vn 0 0.8191520442889918 0.573576436351046
vn 0 -0.8191520442889918 -0.573576436351046
vn -1 0 0
vn 1 0 0
vn 0 -0.573576436351046 0.8191520442889918
vn 0 0.573576436351046 -0.8191520442889918
vn 0 0.8191520442889918 0.573576436351046
vn 0 -0.8191520442889918 -0.573576436351046
vn -1 0 0
vn 1 0 0
vn 0 -0.4226199639912081 0.9063069932622554
vn 0 0.4226194394008338 -0.9063072378837791
vn 0 0.9063100125247031 0.42261348913336017
vn 0 -0.906307237883779 -0.42261943940083385
vn -1 0 0
vn 1 0 0
usemtl m_8577a539-0dc8-803e-996b-bbf39de63f82
f 2/1/1 1/2/1 3/3/1 4/4/1
f 7/5/2 5/6/2 6/7/2 8/8/2
f 5/9/3 1/10/3 2/11/3 6/12/3
f 4/13/4 3/14/4 7/15/4 8/16/4
f 3/17/5 1/18/5 5/19/5 7/20/5
f 6/21/6 2/22/6 4/23/6 8/24/6
f 10/25/7 9/26/7 11/27/7 12/28/7
f 15/29/8 13/30/8 14/31/8 16/32/8
f 13/33/9 9/34/9 10/35/9 14/36/9
f 12/37/10 11/38/10 15/39/10 16/40/10
f 11/41/11 9/42/11 13/43/11 15/44/11
f 14/45/12 10/46/12 12/47/12 16/48/12
f 18/49/13 17/50/13 19/51/13 20/52/13
f 23/53/14 21/54/14 22/55/14 24/56/14
f 21/57/15 17/58/15 18/59/15 22/60/15
f 20/61/16 19/62/16 23/63/16 24/64/16
f 19/65/17 17/66/17 21/67/17 23/68/17
f 22/69/18 18/70/18 20/71/18 24/72/18
o mask
v 0.88009 1.3740864792585907 0.31931625000411795
v 0.88009 0.9645104571140949 0.032528031828594914
v 0.25509000000000004 1.4252834820266527 0.35516477727605833
v 0.88009 1.4252834820266527 0.35516477727605833
v 0.25509000000000004 0.913313454346033 -0.003320495443345464
v 0.88009 0.913313454346033 -0.003320495443345464
v 0.25509000000000004 1.3740864792585907 0.31931625000411795
v 0.25509000000000004 0.9645104571140949 0.032528031828594914
v 0.41134000000000004 1.2255939205626172 0.36793746463233135
v 0.41134000000000004 0.9696089067223072 0.1886948282726295
v 0.72384 1.2255939205626172 0.36793746463233135
v 0.72384 0.9696089067223072 0.1886948282726295
v 0.81759 1.072056038929916 -0.12106297647559104
v 0.25509000000000004 1.3740864792585907 0.31931625000411795
v 0.88009 1.3740864792585907 0.31931625000411795
v 0.31759000000000004 1.481632061074412 0.16572524169993197
v 0.25509000000000004 0.9645104571140949 0.032528031828594914
v 0.88009 0.9645104571140949 0.032528031828594914
v 0.31759000000000004 1.072056038929916 -0.12106297647559104
v 0.81759 1.072056038929916 -0.12106297647559104
v 0.31759000000000004 1.072056038929916 -0.12106297647559104
v 0.81759 1.481632061074412 0.16572524169993197
v 0.81759 1.481632061074412 0.16572524169993197
v 0.25509000000000004 0.913313454346033 -0.003320495443345464
v 0.25509000000000004 0.9645104571140949 0.032528031828594914
v 0.41134000000000004 0.9696089067223072 0.1886948282726295
v 0.31759000000000004 1.353639554154257 0.07610392352008104
v 0.31759000000000004 1.200048545850071 -0.031441658295740096
v 0.30855875000000005 1.6765698990400775 -0.3850884048451473
v 0.30855875000000005 1.5229788907358917 -0.49263398666096836
v 0.81759 1.353639554154257 0.07610392352008104
v 0.81759 1.200048545850071 -0.031441658295740096
v 0.826370625 1.6676092011631833 -0.3722912020332425
v 0.826370625 1.5140181928589973 -0.4798367838490636
vt 0.140625 0.5
vt 0.203125 0.5
vt 0.203125 0.5625
vt 0.140625 0.5625
vt 0.53125 0.96875
vt 0.59375 0.96875
vt 0.625 1
vt 0.5 1
vt 0.59375 0.90625
vt 0.53125 0.90625
vt 0.5 0.875
vt 0.625 0.875
vt 0.59375 0.90625
vt 0.625 0.890625
vt 0.625 0.984375
vt 0.59375 0.96875
vt 0.625 1
vt 0.59375 0.96875
vt 0.625 0.984375
vt 0.625 0.890625
vt 0.59375 0.90625
vt 0.625 0.875
vt 0.53125 0.90625
vt 0.53125 0.96875
vt 0.5 0.984375
vt 0.5 0.890625
vt 0.53125 0.96875
vt 0.5 1
vt 0.5 0.984375
vt 0.609375 0.953125
vt 0.625 1
vt 0.5 1
vt 0.515625 0.953125
vt 0.5 1
vt 0.5234375 0.984375
vt 0.5 0.984375
vt 0.625 1
vt 0.625 0.984375
vt 0.609375 0.984375
vt 0.5 0.875
vt 0.6171875 0.875
vt 0.609375 0.921875
vt 0.515625 0.921875
vt 0.546875 0.890625
vt 0.546875 0.90625
vt 0.515625 0.90625
vt 0.53125 0.90625
vt 0.53125 0.890625
vt 0.5625 0.90625
vt 0.546875 0.875
vt 0.546875 1
vt 0.5 1
vt 0.5 0.875
vt 0.625 1
vt 0.578125 1
vt 0.578125 0.875
vt 0.625 0.875
vt 0.5 0.875
vt 0.53125 0.90625
vt 0.5 0.890625
vt 0.625 0.875
vt 0.625 0.921875
vt 0.5 0.921875
vt 0.5 0.875
vt 0.621240625 1
vt 0.5 1
vt 0.5 0.953125
vt 0.621240625 0.953125
vt 0.625 0.953125
vt 0.5 0.953125
vt 0.5 0.90625
vt 0.625 0.90625
vn 0 -0.573576436351046 0.8191520442889918
vn 0 0.06383227628339815 0.9979606407591834
vn 0 -0.959608174239433 0.2813399223943557
vn 0.6246950475544242 -0.4478879489780174 0.6396502815767696
vn 0.6246950475544242 -0.4478879489780174 0.6396502815767696
vn 0.6246950475544242 -0.4478879489780174 0.6396502815767696
vn -0.6246950475544242 -0.4478879489780174 0.6396502815767696
vn -0.6246950475544242 -0.4478879489780174 0.6396502815767696
vn 0 0.9584966580880916 0.2851037643279372
vn -0.9486832980505138 0.18138079510719035 -0.25903862099363384
vn 0.9486832980505138 0.18138079510719035 -0.25903862099363384
vn 0 -0.5957350678737111 -0.8031810063152047
vn -0.9486832980505138 0.18138079510719035 -0.25903862099363384
vn 0.9486832980505138 0.18138079510719035 -0.25903862099363384
vn -0.9486832980505138 0.18138079510719035 -0.25903862099363384
vn 0.9486832980505138 0.18138079510719035 -0.25903862099363384
vn -0.6246950475544242 -0.4478879489780174 0.6396502815767696
vn -0.9998713686519664 -0.009199532187453972 0.013138293556472318
vn 0.9998713693880795 -0.009199505866218458 0.013138255965852285
vn 0.03015650175933032 0.5733155676358547 -0.8187794851533697
usemtl m_8577a539-0dc8-803e-996b-bbf39de63f82
f 35/73/19 33/74/19 34/75/19 36/76/19
f 33/77/20 35/78/20 28/79/20 27/80/20
f 36/81/21 34/82/21 29/83/21 30/84/21
f 36/85/22 26/86/22 25/87/22 35/88/22
f 28/89/23 35/90/23 25/91/23
f 26/92/24 36/93/24 30/94/24
f 34/95/25 33/96/25 31/97/25 32/98/25
f 33/99/26 27/100/26 31/101/26
f 40/102/27 27/103/27 28/104/27 47/105/27
f 27/106/28 40/107/28 38/108/28
f 28/109/29 39/110/29 47/111/29
f 30/112/30 29/113/30 43/114/30 44/115/30
f 29/116/31 41/117/31 43/118/31
f 42/119/32 30/120/32 44/121/32
f 32/122/33 31/123/33 40/124/33 45/125/33
f 46/126/34 25/127/34 26/128/34 37/129/34
f 48/130/35 50/131/35 49/132/35
f 52/133/36 51/134/36 53/135/36 54/136/36
f 57/137/37 55/138/37 56/139/37 58/140/37
f 53/141/38 57/142/38 58/143/38 54/144/38