# Made in Blockbench 5.1.4
mtllib servoscrivener_table.mtl

o mesh
v 0.999283125 0.1875 -0.0008862499999999773
v -0.0007168750000000057 0.1875 -0.0008862499999999773
v 0.999283125 0.75 0.87411375
v -0.0007168750000000057 0.75 0.87411375
v 0.999283125 0.1875 0.87411375
v -0.0007168750000000057 0.1875 0.87411375
vt 0 0.5
vt 0 0
vt 1 0
vt 1 0.5
vt 1 0.0625
vt 1 0.9375
vt 0 0.9375
vt 0 0.0625
vt 0 1
vt 0 0.5
vt 0.5 0.5
vt 0.5 1
vt 0 0.9375
vt 1 0.4375
vt 1 0.9375
vt 1 0.4375
vt 0 0.9375
vt 1 0.9375
vn 0 0 1
vn 0 0.8411784753765538 -0.5407575913134988
vn 0 -1 0
vn 1 0 0
vn -1 0 0
usemtl m_cbfe42ad-6508-ba28-18af-28256c15eaed
f 5/1/1 3/2/1 4/3/1 6/4/1
usemtl m_60ff763a-170f-732b-9600-8061e73917e0
f 3/5/2 1/6/2 2/7/2 4/8/2
usemtl none
f 2/9/3 1/10/3 5/11/3 6/12/3
usemtl m_cbfe42ad-6508-ba28-18af-28256c15eaed
f 1/13/4 3/14/4 5/15/4
f 4/16/5 2/17/5 6/18/5
o mesh
v 0.999283125 0.1875 -0.0008862499999999773
v -0.0007168750000000057 0.1875 -0.0008862499999999773
v 0.999283125 0 -0.0008862499999999773
v -0.0007168750000000057 0 -0.0008862499999999773
v 0.999283125 0.1875 0.87411375
v -0.0007168750000000057 0.1875 0.87411375
v 0.999283125 0 0.87411375
v -0.0007168750000000057 0 0.87411375
vt 0 0.9375
vt 1 0.9375
vt 1 0.75
vt 0 0.75
vt 0 0.5
vt 0.09375 0.5
vt 0.09375 1
vt 0 1
vt 0 0.5
vt 0.5 0.5
vt 0.5 1
vt 0 1
vt 0 0.0625
vt 1 0.0625
vt 1 0.9375
vt 0 0.9375
vt 0.0625 0.9375
vt 0.0625 0.75
vt 0.9375 0.75
vt 0.9375 0.9375
vt 0.0625 0.9375
vt 0.9375 0.9375
vt 0.9375 0.75
vt 0.0625 0.75
vn 0 0 -1
vn 0 0 1
vn 0 1 0
vn 0 -1 0
vn 1 0 0
vn -1 0 0
usemtl m_78bf9aec-18f9-9a99-117b-a13be9c79d69
f 8/19/6 7/20/6 9/21/6 10/22/6
usemtl none
f 13/23/7 11/24/7 12/25/7 14/26/7
f 11/27/8 7/28/8 8/29/8 12/30/8
usemtl m_93ddd84a-afb4-6179-d956-febe89412a4f
f 10/31/9 9/32/9 13/33/9 14/34/9
usemtl m_f3eaa82e-e403-2dc1-2760-1a7f9f0ed7b5
f 9/35/10 7/36/10 11/37/10 13/38/10
f 12/39/11 8/40/11 10/41/11 14/42/11
o mesh
v 0.999283125 0.75 0.87411375
v -0.0007168750000000057 0.75 0.87411375
v 0.999283125 0.1875 0.87411375
v -0.0007168750000000057 0.1875 0.87411375
v 0.999283125 0.75 1.06161375
v -0.0007168750000000057 0.75 1.06161375
v 0.999283125 0.1875 1.06161375
v -0.0007168750000000057 0.1875 1.06161375
vt 0 0.125
vt 1 0.125
vt 1 0.6875
vt 0 0.6875
vt 0 0.5625
vt 0 0
vt 1 0
vt 1 0.5625
vt 0 0
vt 0.1875 0
vt 0.1875 1
vt 0 1
vt 0.1875 0
vt 0.1875 1
vt 0 1
vt 0 0
vt 0 0.8125
vt 0 0.25
vt 0.1875 0.25
vt 0.1875 0.8125
vt 0.8125 0.25
vt 1 0.25
vt 1 0.8125
vt 0.8125 0.8125
vn 0 0 -1
vn 0 0 1
vn 0 1 0
vn 0 -1 0
vn 1 0 0
vn -1 0 0
usemtl m_cbfe42ad-6508-ba28-18af-28256c15eaed
f 16/43/12 15/44/12 17/45/12 18/46/12
f 21/47/13 19/48/13 20/49/13 22/50/13
f 19/51/14 15/52/14 16/53/14 20/54/14
f 18/55/15 17/56/15 21/57/15 22/58/15
f 17/59/16 15/60/16 19/61/16 21/62/16
f 20/63/17 16/64/17 18/65/17 22/66/17
o mesh
v 0.999283125 0.1875 0.87411375
v -0.0007168750000000057 0.1875 0.87411375
v 0.999283125 0 0.87411375
v -0.0007168750000000057 0 0.87411375
v 0.999283125 0.1875 1.06161375
v -0.0007168750000000057 0.1875 1.06161375
v 0.999283125 0 1.06161375
v -0.0007168750000000057 0 1.06161375
vt 0 0.0625
vt 1 0.0625
vt 1 0.25
vt 0 0.25
vt 0 0.75
vt 0 0.5625
vt 1 0.5625
vt 1 0.75
vt 0.21875 0.5
vt 0.3125 0.5
vt 0.3125 1
vt 0.21875 1
vt 0.1875 1
vt 0.1875 0
vt 0 0
vt 0 1
vt 0 0.75
vt 0 0.5625
vt 0.1875 0.5625
vt 0.1875 0.75
vt 0.1875 0.5625
vt 0 0.5625
vt 0 0.75
vt 0.1875 0.75
vn 0 0 -1
vn 0 0 1
vn 0 1 0
vn 0 -1 0
vn 1 0 0
vn -1 0 0
usemtl m_78bf9aec-18f9-9a99-117b-a13be9c79d69
f 24/67/18 23/68/18 25/69/18 26/70/18
usemtl m_cbfe42ad-6508-ba28-18af-28256c15eaed
f 29/71/19 27/72/19 28/73/19 30/74/19
usemtl none
f 27/75/20 23/76/20 24/77/20 28/78/20
usemtl m_cbfe42ad-6508-ba28-18af-28256c15eaed
f 26/79/21 25/80/21 29/81/21 30/82/21
f 25/83/22 23/84/22 27/85/22 29/86/22
f 28/87/23 24/88/23 26/89/23 30/90/23
o mesh
v 0.165547804162986 0.883114812591011 0.7908656747389868
v -0.010850045639627048 0.8755040016207308 0.9678568444096498
v 0.16813948834398498 0.7581728218137862 0.7880760307240959
v -0.008258361458628072 0.7505620108435059 0.965067200394759
v 0.34262668849829747 0.8828477566603751 0.9673394614714398
v 0.16622883869568444 0.8752369456900949 1.1443306311421029
v 0.34521837267929645 0.7579057658831502 0.964549817456549
v 0.16882052287668342 0.75029495491287 1.141540987127212
v 0.16588404964022888 0.879225293060689 0.9653810440015063
vt 0.4375 0.5625
vt 0.5625 0.5625
vt 0.5625 0.5
vt 0.4375 0.5
vt 0.5 1
vt 0.5 0.9375
vt 0.625 0.9375
vt 0.625 1
vt 0.125 0.65625
vt 0.25 0.65625
vt 0.25 0.53125
vt 0.125 0.53125
vt 0.375 0.75
vt 0.375 0.6875
vt 0.5 0.6875
vt 0.5 0.75
vt 0.4375 0.65625
vt 0.5625 0.65625
vt 0.5625 0.59375
vt 0.4375 0.59375
vt 0.40625 0.53125
vt 0.40625 0.65625
vt 0.34375 0.59375
vt 0.34375 0.59375
vt 0.28125 0.53125
vt 0.40625 0.53125
vt 0.40625 0.65625
vt 0.28125 0.65625
vt 0.34375 0.59375
vt 0.28125 0.65625
vt 0.28125 0.53125
vt 0.34375 0.59375
vn -0.7083155373412459 0.001068223722543971 -0.705895146929812
vn 0.7083155373412459 -0.001068223722543971 0.705895146929812
vn 0.020733473447991806 -0.999535926217799 -0.022317152119126136
vn 0.7055913992104521 0.030443243881120685 -0.7079646786826523
vn -0.7055913992104521 -0.030443243881120685 0.7079646786826523
vn -0.020733473447991806 0.999535926217799 0.022317152119126136
vn -0.020733473447991806 0.999535926217799 0.022317152119126136
vn -0.020733473447991806 0.999535926217799 0.022317152119126136
vn -0.020733473447991806 0.999535926217799 0.022317152119126136
usemtl m_19ac3727-2675-02e9-6b1e-493f308ab75f
f 32/91/24 31/92/24 33/93/24 34/94/24
f 37/95/25 35/96/25 36/97/25 38/98/25
f 34/99/26 33/100/26 37/101/26 38/102/26
f 33/103/27 31/104/27 35/105/27 37/106/27
f 36/107/28 32/108/28 34/109/28 38/110/28
f 35/111/29 31/112/29 39/113/29
f 39/114/30 36/115/30 35/116/30
f 31/117/31 32/118/31 39/119/31
f 32/120/32 36/121/32 39/122/32
o mesh
v 0.9868531672253609 0.75 0.8695968012822981
v 0.9868531672253609 0.9375 0.8695968012822982
v 0.39078007300771905 0.7500000000000001 1.0575379259724689
v 0.39078007300771905 0.9375000000000001 1.0575379259724689
v 1.043235504632412 0.7499999999999999 1.0484187295475906
v 1.043235504632412 0.9374999999999999 1.0484187295475906
v 0.44716241041477023 0.75 1.2363598542377614
v 0.44716241041477023 0.9375 1.2363598542377614
vt 0 0.65625
vt 0.09375 0.65625
vt 0.09375 0.34375
vt 0 0.34375
vt 0.125 1
vt 0.125 0.6875
vt 0.21875 0.6875
vt 0.21875 1
vt 0.375 1
vt 0.375 0.90625
vt 0.46875 0.90625
vt 0.46875 1
vt 0.375 0.875
vt 0.46875 0.875
vt 0.46875 0.78125
vt 0.375 0.78125
vt 0.25 1
vt 0.25 0.6875
vt 0.34375 0.6875
vt 0.34375 1
vt 0 1
vt 0.09375 1
vt 0.09375 0.6875
vt 0 0.6875
vn -0.30070579950427306 1.5176778090477445e-16 -0.9537169507482269
vn 0.30070579950427306 -1.5176778090477445e-16 0.9537169507482269
vn 0.9537169507482269 -1.7132377291716755e-16 -0.3007057995042732
vn -0.9537169507482269 1.7132377291716755e-16 0.3007057995042732
vn -2.618452788763896e-16 -1 -9.205567720480472e-17
vn 2.618452788763896e-16 1 9.205567720480472e-17
usemtl m_19ac3727-2675-02e9-6b1e-493f308ab75f
f 41/123/33 40/124/33 42/125/33 43/126/33
f 46/127/34 44/128/34 45/129/34 47/130/34
f 44/131/35 40/132/35 41/133/35 45/134/35
f 43/135/36 42/136/36 46/137/36 47/138/36
f 42/139/37 40/140/37 44/141/37 46/142/37
f 45/143/38 41/144/38 43/145/38 47/146/38
o mesh_selection
v 0.47410531069955364 0.4507838805690572 1.3227805435428908
v 1.0708439248781103 0.45081672883963414 1.1369633611585725
v 0.44649675662852284 0.749966955895076 1.2342357003637443
v 1.0432353708070796 0.7499998041656529 1.048418517979426
vt 0 0.515625
vt 0.0078125 0
vt 0.9921875 0
vt 0.9921875 0.515625
vn 0.28395990490327844 0.29610599262917464 0.9119693051503502
usemtl m_c5b3dc70-956f-491c-22b3-41e7ccd304de
f 50/147/39 48/148/39 49/149/39 51/150/39
o mesh_selection
v 0.5852562896440605 0.35145413460214125 0.13359785361449816
v 0.1373458263356661 0.47636527851674193 0.31737332255637135
v 0.8875152054635829 0.6745101349893465 0.6507051531585498
v 0.4396047421551884 0.7994212789039472 0.834480622100423
vt 0 1
vt 0.0078125 0
vt 1 0
vt 1 1
vn 0.015348833754878864 0.8439426502933288 -0.536213778560601
usemtl m_c5b3dc70-956f-491c-22b3-41e7ccd304de
f 54/151/40 52/152/40 53/153/40 55/154/40
o mesh_selection
v 0.5786200908308868 0.3212309458384222 0.13796617437477177
v 0.13070962752249238 0.44614208975302283 0.3217416433166449
v 0.8808790066504091 0.6442869462256274 0.6550734739188233
v 0.43296854334201473 0.769198090140228 0.8388489428606966
vt 0 1
vt 0.0078125 0
vt 1 0
vt 1 1
vn 0.015348833754878864 0.8439426502933288 -0.536213778560601
usemtl m_c5b3dc70-956f-491c-22b3-41e7ccd304de
f 58/155/41 56/156/41 57/157/41 59/158/41
o mesh_selection
v 0.571983892017713 0.2910077570747031 0.14233449513504537
v 0.12407342870931864 0.41591890098930373 0.3261099640769185
v 0.8742428078372354 0.6140637574619083 0.6594417946790969
v 0.426332344528841 0.738974901376509 0.8432172636209702
vt 1 0
vt 0.9921875 1
vt 0 1
vt 0 0
vn 0.015348833754878864 0.8439426502933288 -0.536213778560601
usemtl m_c5b3dc70-956f-491c-22b3-41e7ccd304de
f 62/159/42 60/160/42 61/161/42 63/162/42
o cube
v 0.20772322024060447 1.5 1.0688942218626198
v -0.10924047606492032 1.5 0.3891633815851321
v 0.20772322024060447 0.75 1.0688942218626198
v -0.10924047606492032 0.75 0.3891633815851321
v -0.10924047606492032 1.5 0.3891633815851321
v 0.20772322024060447 1.5 1.0688942218626198
v -0.10924047606492032 0.75 0.3891633815851321
v 0.20772322024060447 0.75 1.0688942218626198
vt 0 1
vt 0 1
vt 0 0.625
vt 0 0.625
vt 0.546875 0.265625
vt 0.28125 0.265625
vt 0.28125 0
vt 0.546875 0
vt 0.0625 1
vt 0.0625 1
vt 0.0625 0.625
vt 0.0625 0.625
vt 0.265625 0.265625
vt 0 0.265625
vt 0 0
vt 0.265625 0
vt 0 1
vt 0 1
vt 0.375 1
vt 0.375 1
vt 0.375 0.9375
vt 0.375 0.9375
vt 0 0.9375
vt 0 0.9375
vn -0.42261826174069944 0 -0.9063077870366499
vn 0.9063077870366499 0 -0.42261826174069944
vn 0.42261826174069944 0 0.9063077870366499
vn -0.9063077870366499 0 0.42261826174069944
vn 0 1 0
vn 0 -1 0
usemtl m_19ac3727-2675-02e9-6b1e-493f308ab75f
f 67/166/43 70/165/43 68/164/43 65/163/43
f 66/170/44 67/169/44 65/168/44 64/167/44
f 71/174/45 66/173/45 64/172/45 69/171/45
f 70/178/46 71/177/46 69/176/46 68/175/46
f 69/182/47 64/181/47 65/180/47 68/179/47
f 70/186/48 67/185/48 66/184/48 71/183/48