# Made in Blockbench 5.1.3
mtllib thaumostatic_supressor_base.mtl

o mesh
v 1 0.5 1
v 1 0.5 0
v 1 0 1
v 1 0 0
v 0 0.5 1
v 0 0.5 0
v 0 0 1
v 0 0 0
vt 1 0.5
vt 0 0.5
vt 0 0
vt 1 0
vt 1 0
vt 1 0.5
vt 0 0.5
vt 0 0
vt 0 0
vt 1 0
vt 1 1
vt 0 1
vt 1 0
vt 1 1
vt 0 1
vt 0 0
vt 1 0
vt 1 0.5
vt 0 0.5
vt 0 0
vt 1 0.5
vt 0 0.5
vt 0 0
vt 1 0
vn 1 0 0
vn -1 0 0
vn 0 1 0
vn 0 -1 0
vn 0 0 1
vn 0 0 -1
usemtl m_95439bf8-3576-8801-32a1-8767a40782d7
f 2/1/1 1/2/1 3/3/1 4/4/1
f 7/5/2 5/6/2 6/7/2 8/8/2
usemtl none
f 5/9/3 1/10/3 2/11/3 6/12/3
usemtl m_ccbc9573-5691-6178-5e7b-486dbcefd495
f 4/13/4 3/14/4 7/15/4 8/16/4
usemtl m_95439bf8-3576-8801-32a1-8767a40782d7
f 3/17/5 1/18/5 5/19/5 7/20/5
f 6/21/6 2/22/6 4/23/6 8/24/6
o mesh_selection_selection
v 1 0.5 1
v 1 0.5 0
v 0 0.5 1
v 0 0.5 0
v 0.75 1 0.75
v 0.75 1 0.25
v 0.25 1 0.75
v 0.25 1 0.25
vt 1 0.44098125
vt 0.75 1
vt 0.25 1
vt 0 0.44098125
vt 0.75 1
vt 0.25 1
vt 0 0.44098125
vt 1 0.44098125
vt 1 0.44098125
vt 0.75 1
vt 0.25 1
vt 0 0.44098125
vt 0.25 1
vt 0.75 1
vt 1 0.44098125
vt 0 0.44098125
vt 0 0.5
vt 0.5 0.5
vt 0.5 1
vt 0 1
vn -0.8944271909999161 0.44721359549995804 0
vn 0 0.44721359549995804 0.8944271909999161
vn 0.8944271909999161 0.44721359549995804 0
vn 0 0.44721359549995804 -0.8944271909999161
vn 0 1 0
usemtl m_448c205c-ece1-f507-3a75-b7c8cc1f4173
f 11/25/7 15/26/7 16/27/7 12/28/7
f 13/29/8 15/30/8 11/31/8 9/32/8
f 10/33/9 14/34/9 13/35/9 9/36/9
f 16/37/10 14/38/10 10/39/10 12/40/10
f 15/41/11 13/42/11 14/43/11 16/44/11