# Made in Blockbench 5.1.3
mtllib thaumostatic_supressor.mtl

o mesh
v 1 0.5 1
v 1 0.5 0
v 1 0 1
v 1 0 0
v 0 0.5 1
v 0 0.5 0
v 0 0 1
v 0 0 0
vt 0.5 0.25
vt 0 0.25
vt 0 0
vt 0.5 0
vt 0.5 0
vt 0.5 0.25
vt 0 0.25
vt 0 0
vt 0 0.5
vt 0.5 0.5
vt 0.5 1
vt 0 1
vt 1 0
vt 1 1
vt 0 1
vt 0 0
vt 0.5 0
vt 0.5 0.25
vt 0 0.25
vt 0 0
vt 0.5 0.25
vt 0 0.25
vt 0 0
vt 0.5 0
vn 1 0 0
vn -1 0 0
vn 0 1 0
vn 0 -1 0
vn 0 0 1
vn 0 0 -1
usemtl m_4fa70375-eaed-b1af-086b-e2958079bd4e
f 2/1/1 1/2/1 3/3/1 4/4/1
f 7/5/2 5/6/2 6/7/2 8/8/2
f 5/9/3 1/10/3 2/11/3 6/12/3
usemtl m_ccbc9573-5691-6178-5e7b-486dbcefd495
f 4/13/4 3/14/4 7/15/4 8/16/4
usemtl m_4fa70375-eaed-b1af-086b-e2958079bd4e
f 3/17/5 1/18/5 5/19/5 7/20/5
f 6/21/6 2/22/6 4/23/6 8/24/6
o mesh_selection_selection
v 1 0.5 1
v 1 0.5 0
v 0 0.5 1
v 0 0.5 0
v 0.75 1 0.75
v 0.75 1 0.25
v 0.25 1 0.75
v 0.25 1 0.25
vt 1 0.44098125
vt 0.75 1
vt 0.25 1
vt 0 0.44098125
vt 0.75 1
vt 0.25 1
vt 0 0.44098125
vt 1 0.44098125
vt 1 0.44098125
vt 0.75 1
vt 0.25 1
vt 0 0.44098125
vt 1 0.44098125
vt 0.75 1
vt 0.25 1
vt 0 0.44098125
vt 0 0.5
vt 0.5 0.5
vt 0.5 1
vt 0 1
vn -0.8944271909999161 0.44721359549995804 0
vn 0 0.44721359549995804 0.8944271909999161
vn 0.8944271909999161 0.44721359549995804 0
vn 0 -0.44721359549995804 0.8944271909999161
vn 0 1 0
usemtl m_448c205c-ece1-f507-3a75-b7c8cc1f4173
f 11/25/7 15/26/7 16/27/7 12/28/7
f 13/29/8 15/30/8 11/31/8 9/32/8
f 10/33/9 14/34/9 13/35/9 9/36/9
f 10/37/10 14/38/10 16/39/10 12/40/10
usemtl none
f 15/41/11 13/42/11 14/43/11 16/44/11
o mesh
v 0.40625 2.5 0.4916265877365274
v 0.46875 2.5 0.3833734122634726
v 0.40625 2.5 0.4916265877365274
v 0.46875 2.5 0.3833734122634726
v 0.40625 1.75 0.4916265877365274
v 0.46875 1.75 0.3833734122634726
v 0.40625 1.75 0.4916265877365274
v 0.46875 1.75 0.3833734122634726
vt 0.1875 0.5
vt 0.0625 0.5
vt 0.1875 0
vt 0.0625 0
vt 0.0625 0.5
vt 0.0625 0
vt 0.1875 0.5
vt 0.1875 0
vt 0.1875 0.5
vt 0.0625 0.5
vt 0.0625 0
vt 0.1875 0
vt 0.1875 0.375
vt 0.1875 0.5
vt 0.0625 0.375
vt 0.0625 0.5
vt 0.1875 0.5
vt 0.0625 0.5
vt 0.1875 0.375
vt 0.0625 0.375
vt 0.1875 0
vt 0.1875 0.5
vt 0.0625 0.5
vt 0.0625 0
vn 0 0 0
vn 0 0 0
vn 0.8660254037844387 0 0.49999999999999994
vn 0 0 0
vn 0 0 0
vn -0.8660254037844387 0 -0.49999999999999994
usemtl m_ab9fdadb-f7eb-8cd9-8ce2-de09c119f8f0
f 17/45/12 19/46/12 23/47/12 21/48/12
f 18/49/13 24/50/13 20/51/13 22/52/13
f 18/53/14 17/54/14 23/55/14 24/56/14
f 17/57/15 18/58/15 19/59/15 20/60/15
f 23/61/16 21/62/16 24/63/16 22/64/16
f 21/65/17 19/66/17 20/67/17 22/68/17
o mesh
v 0.6152119653633054 2.6875 0.48670622552167647
v 0.5097880346366946 2.6875 0.41954377447832353
v 0.6152119653633054 1.3125 0.48670622552167647
v 0.5097880346366946 1.3125 0.41954377447832353
v 0.6152119653633054 2.6875 0.48670622552167647
v 0.5097880346366946 2.6875 0.41954377447832353
v 0.6152119653633054 1.3125 0.48670622552167647
v 0.5097880346366946 1.3125 0.41954377447832353
vt 0.1875 1
vt 0.0625 1
vt 0.1875 0.875
vt 0.0625 0.875
vt 0.1875 1
vt 0.0625 1
vt 0.1875 0.5
vt 0.0625 0.5
vt 0.0625 1
vt 0.0625 0.5
vt 0.1875 1
vt 0.1875 0.5
vt 0.1875 1
vt 0.0625 1
vt 0.0625 0.5
vt 0.1875 0.5
vt 0.1875 0.875
vt 0.1875 1
vt 0.0625 0.875
vt 0.0625 1
vn 0 0 0
vn 0 0 0
vn 0 0 0
vn 0.5372996083468238 0 -0.8433914458128856
vn 0 0 0
usemtl m_ab9fdadb-f7eb-8cd9-8ce2-de09c119f8f0
f 27/69/18 31/70/18 28/71/18 32/72/18
f 25/73/19 29/74/19 27/75/19 31/76/19
f 26/77/20 28/78/20 30/79/20 32/80/20
f 26/81/21 25/82/21 27/83/21 28/84/21
f 25/85/22 26/86/22 29/87/22 30/88/22
o mesh
v 0.5625 2.125 0.5625
v 0.4375 2.125 0.5625
v 0.5625 1.5 0.5625
v 0.4375 1.5 0.5625
v 0.5625 2.25 0.5625
v 0.4375 2.25 0.5625
v 0.5625 1.375 0.5625
v 0.4375 1.375 0.5625
vt 0.9375 0.875
vt 0.9375 1
vt 0.8125 1
vt 0.8125 0.875
vt 0.9375 1
vt 0.8125 1
vt 0.9375 0.5
vt 0.8125 0.5
vt 0.8125 1
vt 0.8125 0.5
vt 0.9375 1
vt 0.9375 0.5
vt 0.811961875 0.999456875
vt 0.813043125 0.8744618749999999
vt 0.938038125 0.875543125
vt 0.936956875 1
vt 0.9375 0.8125
vt 0.8125 0.8125
vt 0.8125 0.3125
vt 0.9375 0.3125
vn 2.220446049250313e-16 0 -1
vn 0 0 0
vn 0 0 0
vn 2.220446049250313e-16 0 -1
vn 2.220446049250313e-16 0 -1
usemtl m_ab9fdadb-f7eb-8cd9-8ce2-de09c119f8f0
f 36/89/23 35/90/23 39/91/23 40/92/23
f 33/93/24 37/94/24 35/95/24 39/96/24
f 34/97/25 36/98/25 38/99/25 40/100/25
f 37/101/26 33/102/26 34/103/26 38/104/26
f 34/105/27 33/106/27 35/107/27 36/108/27
o mesh_selection_selection
v 0.1875 1.5625 0.8125
v 0.1875 1.5625 0.1875
v 0.1875 1.25 0.1875
v 0.1875 1.25 0.8125
v 0.8125 1.25 0.1875
v 0.8125 1.5625 0.1875
v 0.8125 1.25 0.8125
v 0.8125 1.5625 0.8125
vt 0.625 1
vt 0 1
vt 0 0.6875
vt 0.625 0.6875
vt 0 0.6875
vt 0.625 0.6875
vt 0.625 1
vt 0 1
vt 0 0.6875
vt 0.625 0.6875
vt 0.625 1
vt 0 1
vt 0 0.6875
vt 0.625 0.6875
vt 0.625 1
vt 0 1
vn -1 0 0
vn 0 0 1
vn -1 0 0
vn 0 0 -1
usemtl m_ab9fdadb-f7eb-8cd9-8ce2-de09c119f8f0
f 41/109/28 42/110/28 43/111/28 44/112/28
f 43/113/29 45/114/29 46/115/29 42/116/29
f 45/117/30 47/118/30 48/119/30 46/120/30
f 47/121/31 44/122/31 41/123/31 48/124/31
o mesh_selection
v 0.75 1 0.75
v 0.75 1 0.25
v 0.25 1 0.75
v 0.25 1 0.25
v 0.75 1.6875 0.75
v 0.75 1.8125 0.25
v 0.25 1.6875 0.75
v 0.25 1.8125 0.25
vt 0.5 0.5
vt 1 0.5
vt 1 1
vt 0.5 1
vt 0.5 0.5
vt 1 0.5
vt 1 1
vt 0.5 1
vt 0.5 1
vt 0 1
vt 0 0.1875
vt 0.5 0.1875
vt 0 0.1875
vt 0.5 0.1875
vt 0.5 1
vt 0 1
vt 0 0.1875
vt 0.5 0.1875
vt 0.5 1
vt 0 1
vt 0 0.1875
vt 0.5 0.1875
vt 0.5 1
vt 0 1
vn 0 1 0
vn 0 0.9701425001453319 0.24253562503633297
vn -1 0 0
vn 0 0 1
vn -1 0 0
vn 0 0 -1
usemtl m_52314ee3-da5d-e567-61aa-32d67cc604e3
f 51/125/32 49/126/32 50/127/32 52/128/32
f 55/129/33 53/130/33 54/131/33 56/132/33
f 55/133/34 56/134/34 52/135/34 51/136/34
f 52/137/35 50/138/35 54/139/35 56/140/35
f 50/141/36 49/142/36 53/143/36 54/144/36
f 49/145/37 51/146/37 55/147/37 53/148/37