# Made in Blockbench 5.1.3
mtllib thaumostatic_supressor_top.mtl

o mesh_selection
v 0.75 0 0.75
v 0.75 0 0.25
v 0.25 0 0.75
v 0.25 0 0.25
v 0.75 0.6875 0.75
v 0.75 0.8125 0.25
v 0.25 0.6875 0.75
v 0.25 0.8125 0.25
vt 0.5 0.5
vt 1 0.5
vt 1 1
vt 0.5 1
vt 0.5 0.8076923076923077
vt 0 0.8076923076923077
vt 0 0
vt 0.5 0
vt 0.5 0.8076923076923077
vt 0.5 0
vt 0 0
vt 0 0.8076923076923077
vt 0.5 0.8076923076923077
vt 0.5 0
vt 0 0
vt 0 0.8076923076923077
vt 0.5 0.8076923076923077
vt 0.5 0
vt 0 0
vt 0 0.8076923076923077
vt 0.5 0
vt 0.5 0.499525
vt 0 0.499525
vt 0 0
vn 0 1 0
vn -1 0 0
vn 0 0 -1
vn 1 0 0
vn 0 0 1
vn 0 0.9701425001453319 0.24253562503633297
usemtl none
f 3/1/1 1/2/1 2/3/1 4/4/1
usemtl m_10575faa-c510-23c0-fc3f-7eef1357c5d4
f 7/5/2 8/6/2 4/7/2 3/8/2
f 6/9/3 2/10/3 4/11/3 8/12/3
f 5/13/4 1/14/4 2/15/4 6/16/4
f 7/17/5 3/18/5 1/19/5 5/20/5
usemtl m_88aca4f4-2340-8d8a-4da1-9c0491e8b886
f 5/21/6 6/22/6 8/23/6 7/24/6
o mesh
v 0.5625 1.125 0.521875
v 0.5625 0.5 0.521875
v 0.4375 0.5 0.521875
v 0.5625 1.25 0.521875
v 0.4375 1.25 0.521875
v 0.5625 0.375 0.521875
v 0.4375 0.375 0.521875
v 0.5625 1.125 0.6
v 0.4375 1.125 0.6
v 0.5625 0.5 0.6
v 0.4375 0.5 0.6
v 0.5625 1.25 0.6
v 0.4375 1.25 0.6
v 0.5625 0.375 0.6
v 0.4375 0.375 0.6
vt 0.9375 1
vt 0.8125 1
vt 0.8125 0.875
vt 0.9375 0.875
vt 0.875 0.75
vt 0.875 0.75
vt 0.875 0.75
vt 0.875 0.75
vt 0.9375 1
vt 0.8125 1
vt 0.8125 0.875
vt 0.9375 0.875
vt 0.875 0.75
vt 0.875 0.75
vt 0.875 0.75
vt 0.875 0.75
vt 0.8125 1
vt 0.9375 1
vt 0.9375 0.25
vt 0.8125 0.25
vt 0.875 0.75
vt 0.875 0.75
vt 0.875 0.75
vt 0.875 0.75
vt 0.6875 0.25
vt 0.6875 1
vt 0.5625 1
vt 0.5625 0.25
vt 0.3125 1
vt 0.3125 0.25
vt 0.375 0.25
vt 0.375 1
vt 0.6875 1
vt 0.625 1
vt 0.625 0.25
vt 0.6875 0.25
vt 0.5625 1
vt 0.5625 0.9375
vt 0.4375 0.9375
vt 0.4375 1
vn 0 0 -1
vn 0 0 0
vn 0 0 -1
vn 0 0 0
vn 0 0 -1
vn 0 0 0
vn 0 0 1
vn -1 0 0
vn 1 0 0
vn 0 1 0
usemtl m_a7da3a5b-f4a9-a573-b49c-0ef45f1524c0
f 11/25/7 10/26/7 14/27/7 15/28/7
f 9/29/8 12/30/8 10/31/8 14/32/8
f 19/33/9 18/34/9 22/35/9 23/36/9
f 16/37/10 20/38/10 18/39/10 22/40/10
f 13/41/11 12/42/11 10/43/11 11/44/11
f 17/45/12 19/46/12 21/47/12 23/48/12
f 18/49/13 20/50/13 21/51/13 19/52/13
f 13/53/14 11/54/14 19/55/14 21/56/14
f 12/57/15 20/58/15 18/59/15 10/60/15
f 13/61/16 21/62/16 20/63/16 12/64/16
o mesh
v 0.5625001338465622 1.6875 0.41249978527579745
v 0.4374997328457988 1.6875 0.4124999826940982
v 0.5625001338465622 0.3125 0.41249978527579745
v 0.4374997328457988 0.3125 0.4124999826940982
v 0.5625001338465622 1.6875 0.41249978527579745
v 0.4374997328457988 1.6875 0.4124999826940982
v 0.5625001338465622 0.3125 0.41249978527579745
v 0.4374997328457988 0.3125 0.4124999826940982
v 0.562500064649585 1.6875 0.47499972221635234
v 0.43749966364882154 1.6875 0.4749999196346531
v 0.562500064649585 0.3125 0.47499972221635234
v 0.43749966364882154 0.3125 0.4749999196346531
v 0.562500064649585 1.6875 0.47499972221635234
v 0.43749966364882154 1.6875 0.4749999196346531
v 0.562500064649585 0.3125 0.47499972221635234
v 0.43749966364882154 0.3125 0.4749999196346531
vt 0.125 0.875
vt 0.125 0.875
vt 0.125 1
vt 0.125 1
vt 0.125 0.75
vt 0.125 0.75
vt 0.125 0.75
vt 0.125 0.75
vt 0.125 0.75
vt 0.125 0.75
vt 0.125 0.75
vt 0.125 0.75
vt 0.0625 1
vt 0.1875 1
vt 0.1875 0
vt 0.0625 0
vt 0.125 0.875
vt 0.125 0.875
vt 0.125 1
vt 0.125 1
vt 0.1875 0.875
vt 0.1875 0.875
vt 0.1875 1
vt 0.1875 1
vt 0.1875 0.75
vt 0.1875 0.75
vt 0.1875 0.75
vt 0.1875 0.75
vt 0.1875 0.75
vt 0.1875 0.75
vt 0.1875 0.75
vt 0.1875 0.75
vt 0.1875 0
vt 0.1875 1
vt 0.0625 1
vt 0.0625 0
vt 0.1875 0.875
vt 0.1875 1
vt 0.1875 0.875
vt 0.1875 1
vt 0.1875 1
vt 0.125 1
vt 0.125 0
vt 0.1875 0
vt 0.375 1
vt 0.3125 1
vt 0.3125 0
vt 0.375 0
vt 0.0625 1
vt 0.0625 0.9375
vt 0.1875 0.9375
vt 0.1875 1
vn 0 0 0
vn 0 0 0
vn 0 0 0
vn -0.0000015793413394304956 0 -0.9999999999987529
vn 0 0 0
vn 0 0 0
vn 0 0 0
vn 0 0 0
vn 0.0000015793413394304956 0 0.9999999999987529
vn 0 0 0
vn 0.9999999999993873 0 0.0000011071527528661031
vn -0.9999999999993872 0 -0.0000011071527528105918
vn 0 1 0
usemtl m_a7da3a5b-f4a9-a573-b49c-0ef45f1524c0
f 26/65/17 30/66/17 27/67/17 31/68/17
f 24/69/18 28/70/18 26/71/18 30/72/18
f 25/73/19 27/74/19 29/75/19 31/76/19
f 25/77/20 24/78/20 26/79/20 27/80/20
f 28/81/21 24/82/21 25/83/21 29/84/21
f 34/85/22 38/86/22 35/87/22 39/88/22
f 32/89/23 36/90/23 34/91/23 38/92/23
f 33/93/24 35/94/24 37/95/24 39/96/24
f 34/97/25 32/98/25 33/99/25 35/100/25
f 32/101/26 33/102/26 36/103/26 37/104/26
f 28/105/27 36/106/27 34/107/27 26/108/27
f 33/109/28 25/110/28 27/111/28 35/112/28
f 25/113/29 33/114/29 32/115/29 24/116/29
o mesh_selection_selection
v 0.1875 0.4624999999999999 0.8125
v 0.1875 0.4624999999999999 0.1875
v 0.1875 0.3500000000000001 0.1875
v 0.1875 0.3500000000000001 0.8125
v 0.8125 0.3500000000000001 0.1875
v 0.8125 0.4624999999999999 0.1875
v 0.8125 0.3500000000000001 0.8125
v 0.8125 0.4624999999999999 0.8125
v 0.1875 0.3500000000000001 0.875
v 0.8125 0.3500000000000001 0.875
v 0.1875 0.4624999999999999 0.875
v 0.8125 0.4624999999999999 0.875
v 0.8125 0.3500000000000001 0.125
v 0.1875 0.3500000000000001 0.125
v 0.8125 0.4624999999999999 0.125
v 0.1875 0.4624999999999999 0.125
v 0.125 0.4624999999999999 0.8125
v 0.125 0.4624999999999999 0.1875
v 0.125 0.3500000000000001 0.1875
v 0.125 0.3500000000000001 0.8125
v 0.875 0.3500000000000001 0.8125
v 0.875 0.3500000000000001 0.1875
v 0.875 0.4624999999999999 0.8125
v 0.875 0.4624999999999999 0.1875
v 0.875 0.2749999999999999 0.8125
v 0.8125 0.2749999999999999 0.875
v 0.8125 0.1625000000000001 0.875
v 0.875 0.1625000000000001 0.8125
v 0.875 0.1625000000000001 0.1875
v 0.875 0.2749999999999999 0.1875
v 0.8125 0.2749999999999999 0.8125
v 0.8125 0.1625000000000001 0.8125
v 0.1875 0.1625000000000001 0.875
v 0.1875 0.1625000000000001 0.8125
v 0.1875 0.2749999999999999 0.875
v 0.1875 0.2749999999999999 0.8125
v 0.125 0.2749999999999999 0.1875
v 0.125 0.2749999999999999 0.8125
v 0.1875 0.2749999999999999 0.1875
v 0.1875 0.2749999999999999 0.125
v 0.1875 0.1625000000000001 0.125
v 0.1875 0.1625000000000001 0.1875
v 0.8125 0.2749999999999999 0.125
v 0.8125 0.1625000000000001 0.125
v 0.8125 0.2749999999999999 0.1875
v 0.8125 0.1625000000000001 0.1875
v 0.125 0.1625000000000001 0.1875
v 0.125 0.1625000000000001 0.8125
vt 0.3125 0.25
vt 0.4375 0.25
vt 0.4375 0.875
vt 0.3125 0.875
vt 0.0625 0.1875
vt 0.1875 0.1875
vt 0.1875 0.8125
vt 0.0625 0.8125
vt 0.0625 0.375
vt 0.1875 0.375
vt 0.1875 1
vt 0.0625 1
vt 0.375 0.6875
vt 0.375 1
vt 0.3125 1
vt 0.3125 0.6875
vt 0.625 0.125
vt 0.625 0.75
vt 0.5625 0.75
vt 0.5625 0.125
vt 0 1
vt 0 0.6875
vt 0.0625 0.6875
vt 0.0625 1
vt 0.625 1
vt 0.625 0.375
vt 0.6875 0.375
vt 0.6875 1
vt 0.3125 0.375
vt 0.4375 0.375
vt 0.4375 1
vt 0.3125 1
vt 0.375 0.6875
vt 0.375 1
vt 0.3125 1
vt 0.3125 0.6875
vt 0.8125 1
vt 0.8125 0.375
vt 0.875 0.375
vt 0.875 1
vt 0 1
vt 0 0.6875
vt 0.0625 0.6875
vt 0.0625 1
vt 0.4375 0.375
vt 0.4375 1
vt 0.375 1
vt 0.375 0.375
vt 0.5625 0.375
vt 0.6875 0.375
vt 0.6875 1
vt 0.5625 1
vt 0.5625 1
vt 0.5625 0.375
vt 0.6875 0.375
vt 0.6875 1
vt 0.125 1
vt 0.125 0.375
vt 0.1875 0.375
vt 0.1875 1
vt 0.0625 0.6875
vt 0.0625 1
vt 0 1
vt 0 0.6875
vt 0.125 1
vt 0.125 0.375
vt 0.1875 0.375
vt 0.1875 1
vt 0.3125 1
vt 0.3125 0.6875
vt 0.375 0.6875
vt 0.375 1
vt 0.375 0.6875
vt 0.375 1
vt 0.3125 1
vt 0.3125 0.6875
vt 0.1875 0.375
vt 0.1875 1
vt 0.125 1
vt 0.125 0.375
vt 0 1
vt 0 0.6875
vt 0.0625 0.6875
vt 0.0625 1
vt 0.1875 0.375
vt 0.1875 1
vt 0.125 1
vt 0.125 0.375
vt 0.0625 0.25
vt 0.1875 0.25
vt 0.1875 0.875
vt 0.0625 0.875
vt 0.8125 0.375
vt 0.9375 0.375
vt 0.9375 1
vt 0.8125 1
vt 0.3125 0.1875
vt 0.3125 0.125
vt 0.4375 0.125
vt 0.4375 0.1875
vt 0.625 0.1875
vt 0.625 0.125
vt 0.75 0.125
vt 0.75 0.1875
vt 0 0.3125
vt 0 0.25
vt 0.125 0.25
vt 0.125 0.3125
vt 0 0.3125
vt 0 0.25
vt 0.125 0.25
vt 0.125 0.3125
vt 0.125 0.9375
vt 0.125 1
vt 0.1875 0.9375
vt 0.375 1
vt 0.375 0.9375
vt 0.4375 0.9375
vt 0.125 0.9375
vt 0.0625 1
vt 0.125 1
vt 0.125 0.9375
vt 0.125 1
vt 0.0625 1
vt 0.4375 1
vt 0.375 1
vt 0.375 0.9375
vt 0.25 0.9375
vt 0.1875 0.875
vt 0.1875 0.9375
vt 0.4375 0.9375
vt 0.375 1
vt 0.4375 1
vt 0.125 0.6875
vt 0.0625 0.6875
vt 0.125 0.75
vt 0.3125 0.25
vt 0.4375 0.25
vt 0.4375 0.875
vt 0.3125 0.875
vt 0.0625 0.1875
vt 0.1875 0.1875
vt 0.1875 0.8125
vt 0.0625 0.8125
vt 0.0625 0.375
vt 0.1875 0.375
vt 0.1875 1
vt 0.0625 1
vt 0.375 0.6875
vt 0.375 1
vt 0.3125 1
vt 0.3125 0.6875
vt 0.625 0.125
vt 0.625 0.75
vt 0.5625 0.75
vt 0.5625 0.125
vt 0 1
vt 0 0.6875
vt 0.0625 0.6875
vt 0.0625 1
vt 0.625 1
vt 0.625 0.375
vt 0.6875 0.375
vt 0.6875 1
vt 0.3125 0.375
vt 0.4375 0.375
vt 0.4375 1
vt 0.3125 1
vt 0.375 0.6875
vt 0.375 1
vt 0.3125 1
vt 0.3125 0.6875
vt 0.8125 1
vt 0.8125 0.375
vt 0.875 0.375
vt 0.875 1
vt 0 1
vt 0 0.6875
vt 0.0625 0.6875
vt 0.0625 1
vt 0.4375 0.375
vt 0.4375 1
vt 0.375 1
vt 0.375 0.375
vt 0.5625 0.375
vt 0.6875 0.375
vt 0.6875 1
vt 0.5625 1
vt 0.5625 1
vt 0.5625 0.375
vt 0.6875 0.375
vt 0.6875 1
vt 0.125 1
vt 0.125 0.375
vt 0.1875 0.375
vt 0.1875 1
vt 0.0625 0.6875
vt 0.0625 1
vt 0 1
vt 0 0.6875
vt 0.125 1
vt 0.125 0.375
vt 0.1875 0.375
vt 0.1875 1
vt 0.3125 1
vt 0.3125 0.6875
vt 0.375 0.6875
vt 0.375 1
vt 0.375 0.6875
vt 0.375 1
vt 0.3125 1
vt 0.3125 0.6875
vt 0.1875 0.375
vt 0.1875 1
vt 0.125 1
vt 0.125 0.375
vt 0 1
vt 0 0.6875
vt 0.0625 0.6875
vt 0.0625 1
vt 0.1875 0.375
vt 0.1875 1
vt 0.125 1
vt 0.125 0.375
vt 0.0625 0.25
vt 0.1875 0.25
vt 0.1875 0.875
vt 0.0625 0.875
vt 0.8125 0.375
vt 0.9375 0.375
vt 0.9375 1
vt 0.8125 1
vt 0.3125 0.1875
vt 0.3125 0.125
vt 0.4375 0.125
vt 0.4375 0.1875
vt 0.625 0.1875
vt 0.625 0.125
vt 0.75 0.125
vt 0.75 0.1875
vt 0 0.3125
vt 0 0.25
vt 0.125 0.25
vt 0.125 0.3125
vt 0 0.3125
vt 0 0.25
vt 0.125 0.25
vt 0.125 0.3125
vt 0.125 0.9375
vt 0.125 1
vt 0.1875 0.9375
vt 0.375 1
vt 0.375 0.9375
vt 0.4375 0.9375
vt 0.125 0.9375
vt 0.0625 1
vt 0.125 1
vt 0.125 0.9375
vt 0.125 1
vt 0.0625 1
vt 0.4375 1
vt 0.375 1
vt 0.375 0.9375
vt 0.25 0.9375
vt 0.1875 0.875
vt 0.1875 0.9375
vt 0.4375 0.9375
vt 0.375 1
vt 0.4375 1
vt 0.125 0.6875
vt 0.0625 0.6875
vt 0.125 0.75
vn 0 0 -1
vn 1 0 0
vn 0 0 1
vn -1 0 0
vn 0 -1 0
vn 1 0 0
vn 0 1 0
vn 0 0 -1
vn 1 0 0
vn 0 -1 0
vn -1 0 0
vn 0 1 0
vn 0 0 1
vn -1 0 0
vn 0 1 0
vn 0 0 -1
vn 0 -1 0
vn 0 0 1
vn 0 0 1
vn 0 -1 0
vn 0 0 -1
vn 0 1 0
vn -1 0 0
vn 1 0 0
vn 0.7071067811865476 0 -0.7071067811865476
vn -0.7071067811865476 0 -0.7071067811865476
vn -0.7071067811865476 0 0.7071067811865476
vn 0.7071067811865476 0 0.7071067811865476
vn 0 1 0
vn 0 -1 0
vn 0 -1 0
vn 0 -1 0
vn 0 -1 0
vn 0 1 0
vn 0 1 0
vn 0 1 0
vn 0 0 -1
vn 1 0 0
vn 0 0 1
vn -1 0 0
vn 0 -1 0
vn 1 0 0
vn 0 1 0
vn 0 0 -1
vn 1 0 0
vn 0 -1 0
vn -1 0 0
vn 0 1 0
vn 0 0 1
vn -1 0 0
vn 0 1 0
vn 0 0 -1
vn 0 -1 0
vn 0 0 1
vn 0 0 1
vn 0 -1 0
vn 0 0 -1
vn 0 1 0
vn -1 0 0
vn 1 0 0
vn 0.7071067811865476 0 -0.7071067811865476
vn -0.7071067811865476 0 -0.7071067811865476
vn -0.7071067811865476 0 0.7071067811865476
vn 0.7071067811865476 0 0.7071067811865476
vn 0 1 0
vn 0 -1 0
vn 0 -1 0
vn 0 -1 0
vn 0 -1 0
vn 0 1 0
vn 0 1 0
vn 0 1 0
usemtl m_a7da3a5b-f4a9-a573-b49c-0ef45f1524c0
f 54/117/30 52/118/30 53/119/30 55/120/30
f 62/121/31 60/122/31 61/123/31 63/124/31
f 50/125/32 48/126/32 49/127/32 51/128/32
f 48/129/33 50/130/33 40/131/33 43/132/33
f 49/133/34 48/134/34 43/135/34 46/136/34
f 51/137/35 49/138/35 46/139/35 47/140/35
f 50/141/36 51/142/36 47/143/36 40/144/36
f 47/145/37 46/146/37 43/147/37 40/148/37
f 52/149/38 54/150/38 45/151/38 44/152/38
f 53/153/39 52/154/39 44/155/39 42/156/39
f 55/157/40 53/158/40 42/159/40 41/160/40
f 54/161/41 55/162/41 41/163/41 45/164/41
f 41/165/42 42/166/42 44/167/42 45/168/42
f 56/169/43 57/170/43 58/171/43 59/172/43
f 57/173/44 56/174/44 40/175/44 41/176/44
f 58/177/45 57/178/45 41/179/45 42/180/45
f 59/181/46 58/182/46 42/183/46 43/184/46
f 56/185/47 59/186/47 43/187/47 40/188/47
f 60/189/48 62/190/48 47/191/48 46/192/48
f 61/193/49 60/194/49 46/195/49 44/196/49
f 63/197/50 61/198/50 44/199/50 45/200/50
f 62/201/51 63/202/51 45/203/51 47/204/51
f 45/205/52 44/206/52 46/207/52 47/208/52
f 40/209/53 43/210/53 42/211/53 41/212/53
f 54/213/54 63/214/54 61/215/54 52/216/54
f 57/217/55 55/218/55 53/219/55 58/220/55
f 50/221/56 56/222/56 59/223/56 48/224/56
f 62/225/57 51/226/57 49/227/57 60/228/57
f 47/229/58 51/230/58 62/231/58
f 49/232/59 46/233/59 60/234/59
f 48/235/60 59/236/60 43/237/60
f 53/238/61 42/239/61 58/240/61
f 61/241/62 44/242/62 52/243/62
f 63/244/63 54/245/63 45/246/63
f 55/247/64 57/248/64 41/249/64
f 40/250/65 56/251/65 50/252/65
f 82/253/66 83/254/66 80/255/66 79/256/66
f 64/257/67 67/258/67 68/259/67 69/260/67
f 74/261/68 72/262/68 66/263/68 65/264/68
f 72/265/69 74/266/69 75/267/69 73/268/69
f 66/269/70 72/270/70 73/271/70 71/272/70
f 65/273/71 66/274/71 71/275/71 70/276/71
f 74/277/72 65/278/72 70/279/72 75/280/72
f 70/281/73 71/282/73 73/283/73 75/284/73
f 83/285/74 82/286/74 84/287/74 85/288/74
f 80/289/75 83/290/75 85/291/75 81/292/75
f 79/293/76 80/294/76 81/295/76 78/296/76
f 82/297/77 79/298/77 78/299/77 84/300/77
f 78/301/78 81/302/78 85/303/78 84/304/78
f 77/305/79 76/306/79 86/307/79 87/308/79
f 76/309/80 77/310/80 75/311/80 78/312/80
f 86/313/81 76/314/81 78/315/81 81/316/81
f 87/317/82 86/318/82 81/319/82 73/320/82
f 77/321/83 87/322/83 73/323/83 75/324/83
f 67/325/84 64/326/84 70/327/84 71/328/84
f 68/329/85 67/330/85 71/331/85 85/332/85
f 69/333/86 68/334/86 85/335/86 84/336/86
f 64/337/87 69/338/87 84/339/87 70/340/87
f 84/341/88 85/342/88 71/343/88 70/344/88
f 75/345/89 73/346/89 81/347/89 78/348/89
f 82/349/90 69/350/90 68/351/90 83/352/90
f 76/353/91 79/354/91 80/355/91 86/356/91
f 74/357/92 77/358/92 87/359/92 72/360/92
f 64/361/93 65/362/93 66/363/93 67/364/93
f 70/365/94 65/366/94 64/367/94
f 66/368/95 71/369/95 67/370/95
f 72/371/96 87/372/96 73/373/96
f 80/374/97 81/375/97 86/376/97
f 68/377/98 85/378/98 83/379/98
f 69/380/99 82/381/99 84/382/99
f 79/383/100 76/384/100 78/385/100
f 75/386/101 77/387/101 74/388/101